<?xml version="1.0" encoding="UTF-8"?>
<svg viewBox="0 0 744.09447 1052.362179" xmlns="http://www.w3.org/2000/svg" xmlns:xlink="http://www.w3.org/1999/xlink">
 <defs>
  <filter id="j">
   <feGaussianBlur stdDeviation="8.9476"/>
  </filter>
  <filter id="d">
   <feGaussianBlur stdDeviation=".5825"/>
  </filter>
  <filter id="l" x="-.46801" y="-.02265" width="1.936" height="1.0453">
   <feGaussianBlur stdDeviation=".5825"/>
  </filter>
  <filter id="m" x="-.02296" y="-.13289" width="1.0459" height="1.2658">
   <feGaussianBlur stdDeviation=".5825"/>
  </filter>
  <filter id="k" x="-.02054" y="-.14542" width="1.0411" height="1.2908">
   <feGaussianBlur stdDeviation=".5237"/>
  </filter>
  <filter id="n" x="-.02414" y="-.11222" width="1.0483" height="1.2244">
   <feGaussianBlur stdDeviation=".5825"/>
  </filter>
  <filter id="o" x="-.1621" y="-.06655" width="1.3242" height="1.1331">
   <feGaussianBlur stdDeviation=".5825"/>
  </filter>
  <filter id="p" x="-.18648" y="-.06527" width="1.373" height="1.1305">
   <feGaussianBlur stdDeviation=".5825"/>
  </filter>
  <filter id="q" x="-.27994" y="-.06326" width="1.5599" height="1.1265">
   <feGaussianBlur stdDeviation=".5825"/>
  </filter>
  <filter id="r" x="-.40222" y="-.06252" width="1.8044" height="1.125">
   <feGaussianBlur stdDeviation=".5825"/>
  </filter>
  <filter id="s" x="-.73503" y="-.06208" width="2.4701" height="1.1242">
   <feGaussianBlur stdDeviation=".5825"/>
  </filter>
  <filter id="t" x="-.35044" y="-.06274" width="1.7009" height="1.1255">
   <feGaussianBlur stdDeviation=".5825"/>
  </filter>
  <filter id="u" x="-.17605" y="-.06575" width="1.3521" height="1.1315">
   <feGaussianBlur stdDeviation=".5825"/>
  </filter>
  <filter id="v" x="-.07217" y="-.11727" width="1.1444" height="1.2345">
   <feGaussianBlur stdDeviation=".5825"/>
  </filter>
  <filter id="w" x="-.066" y="-.17118" width="1.132" height="1.3424">
   <feGaussianBlur stdDeviation=".5825"/>
  </filter>
  <filter id="x" x="-.06229" y="-.50105" width="1.1246" height="2.0021">
   <feGaussianBlur stdDeviation=".5825"/>
  </filter>
  <filter id="y" x="-.06405" y="-.22785" width="1.1281" height="1.4557">
   <feGaussianBlur stdDeviation=".5825"/>
  </filter>
  <filter id="z" x="-.07395" y="-.11055" width="1.1479" height="1.2211">
   <feGaussianBlur stdDeviation=".5825"/>
  </filter>
  <filter id="aa" x="-.23169" y="-.06396" width="1.4634" height="1.1279">
   <feGaussianBlur stdDeviation=".5825"/>
  </filter>
  <filter id="ab" x="-1.8091" y="-.06197" width="4.6183" height="1.1239">
   <feGaussianBlur stdDeviation=".5825"/>
  </filter>
  <filter id="ac" x="-.13565" y="-.06905" width="1.2713" height="1.1381">
   <feGaussianBlur stdDeviation=".5825"/>
  </filter>
  <filter id="ad" x="-.06837" y="-.14097" width="1.1368" height="1.282">
   <feGaussianBlur stdDeviation=".5825"/>
  </filter>
  <filter id="ae" x="-.06502" y="-.19294" width="1.13" height="1.3859">
   <feGaussianBlur stdDeviation=".5825"/>
  </filter>
  <filter id="af" x="-.06198" y="-1.3011" width="1.124" height="3.6022">
   <feGaussianBlur stdDeviation=".5825"/>
  </filter>
  <filter id="ag" x="-.06216" y="-.62049" width="1.1243" height="2.241">
   <feGaussianBlur stdDeviation=".5825"/>
  </filter>
  <filter id="ah" x="-.06447" y="-.21063" width="1.1289" height="1.4213">
   <feGaussianBlur stdDeviation=".5825"/>
  </filter>
  <filter id="ai" x="-.06678" y="-.1591" width="1.1336" height="1.3182">
   <feGaussianBlur stdDeviation=".5825"/>
  </filter>
  <filter id="g" x="-.204" y="-.204" width="1.408" height="1.408">
   <feGaussianBlur stdDeviation="3.3576"/>
  </filter>
  <linearGradient id="c" x1="-253.67" x2="-151.1" gradientUnits="userSpaceOnUse">
   <stop stop-color="#a30100" offset="0"/>
   <stop stop-color="#e93421" offset=".5389"/>
   <stop stop-color="#a30100" offset="1"/>
  </linearGradient>
  <linearGradient id="a" x1="-253.66" x2="-151.09" gradientUnits="userSpaceOnUse">
   <stop stop-color="#daa240" offset="0"/>
   <stop stop-color="#fff" offset=".5"/>
   <stop stop-color="#b77e24" offset="1"/>
  </linearGradient>
  <linearGradient id="i" x1="-188" x2="-109.8" gradientUnits="userSpaceOnUse">
   <stop stop-color="#1a1a1a" offset="0"/>
   <stop stop-color="#4d4d4d" offset=".5"/>
   <stop stop-color="#1a1a1a" offset="1"/>
  </linearGradient>
  <linearGradient id="h" x1="615.41" x2="591.05" y1="-20.263" y2="22.561" gradientUnits="userSpaceOnUse">
   <stop stop-color="#f7a039" offset="0"/>
   <stop stop-color="#e23335" offset="1"/>
  </linearGradient>
  <radialGradient id="b" cx="813.59" cy="127.53" r="47.299" gradientTransform="matrix(1.0393 .02098 -.0069 .40166 -31.063 56.689)" gradientUnits="userSpaceOnUse">
   <stop stop-color="#b40d08" offset="0"/>
   <stop stop-color="#500" offset="1"/>
  </radialGradient>
  <radialGradient id="f" cx="703.83" cy="41.573" r="19.751" gradientUnits="userSpaceOnUse">
   <stop stop-color="#fff" offset="0"/>
   <stop stop-color="#f7a039" offset="1"/>
  </radialGradient>
 </defs>
 <g transform="matrix(.71818 .19465 -.19465 .71818 612.12 150.61)">
  <path d="m-154.09 119.53a7.2507 7.2507 0 0 0 -2.7812 0.71875 7.2507 7.2507 0 0 0 -4.0938 6.1562s-2.4483 34.026 0.0625 52.938c2.7115 20.423 12.641 52.341 17.688 67.75-3.9866-0.65792-8.0268-0.96607-11.969-0.8125-1.7654 0.0688-3.5164 0.22028-5.2188 0.46875-1.7461 0.25486-3.4674 0.59558-5.125 1.0625-0.75622-19.094-4.7358-32.858-10.406-33.219-0.25484-0.0162-0.52652 0.0246-0.78125 0.0625v-0.0937l-5.2188-0.34375h-0.125l-0.65625-0.0312v-0.0312l-9.125-0.5625h-0.0625l-0.78125-0.0625-294.62-18.719h-0.0937l-0.6875-0.0312v-0.0312l-9.1875-0.59375c0.0892 6e-3 0.16167 0.0503 0.25 0.0625l-0.4688-0.0315c0.0712-8.2e-4 0.14979-0.0356 0.21875-0.0312l-0.78125-0.0312-6.8125-0.40625c-0.0944-0.0136-0.18586-0.0564-0.28125-0.0625-0.0945-6e-3 -0.18672-1e-3 -0.28125 0h-0.21875v0.0312c-7.2403 0.55354-14.4 22.69-16.156 50.312s2.5444 50.471 9.6562 51.938v0.0625l8.3438 0.53125 0.375 0.0312 107.62 6.8438-95.031 2.9688h-0.125c-0.0414 1e-3 -0.0828 0.0279-0.125 0.0312h-0.65625l-9.0625 0.28125h-0.15625l-0.78125 0.0312-7.0938 0.21875c-0.0532 2e-3 -0.10332 0.0272-0.15625 0.0312h-0.34375v0.0312c-7.1558 1.2349-12.182 23.959-11.312 51.625 0.80628 25.654 6.4012 46.756 12.969 50.312-2.4075 9.5249-3.5926 23.432-2.875 38.906 0.5465 11.785 2.1266 22.582 4.2812 31.156-5.8409 5.5798-10.188 25.739-10.188 49.75 0 24.192 4.405 44.443 10.312 49.844-2.0359 8.2068-3.5754 18.226-4.25 29.125-1.3059 21.097 0.92571 39.402 5.2188 47.531-7.0754 1.4841-12.719 23.825-12.719 51.188 0 27.68 5.7776 50.24 12.969 51.25v0.0625h93.062l-76.812 3.375h-0.0312l-0.75 0.0312-9.2188 0.40625h-0.0625l-0.71875 0.0312-7.0625 0.3125h-0.0937l-0.40625 0.0312v0.0312c-7.1398 1.3245-11.904 24.097-10.688 51.75 0.65875 14.978 2.9331 28.344 6.0312 37.594-3.2022 9.2938-5.5275 23.097-6.0938 38.625-1.0088 27.661 3.913 50.417 11.062 51.688v0.0625l75.406 2.75-62.125 3.375h-0.0312l-0.75 0.0312-9.1875 0.5-0.78125 0.0625-7.0938 0.375h-0.0625l-0.4375 0.0312v0.0312c-7.1256 1.3988-11.629 24.236-10.125 51.875s8.4526 49.818 15.688 50.437v0.063l7.875-0.4376 0.5-0.031 9.1875-0.5 81.938-4.4375-79.719 12.656-9.125 1.4687-0.75 0.125-7 1.0937-0.125 0.031-0.375 0.062v0.031c-6.9446 2.1237-9.071 25.318-4.7188 52.656 4.3516 27.334 13.584 48.694 20.844 48.562v0.031l0.5-0.062 0.125-0.031 17.5-2.7813c0.0317 0 0.0622-0.025 0.0937-0.031l291.47-46.406 0.4375-0.063 6.1875-0.9687 3.25-0.5313 5.9375-0.9374-0.0312-0.094c0.25698 0.013 0.56046 0.01 0.8125-0.031 1.5369-0.2447 2.8254-1.4804 3.9062-3.5313 1.8798 0.7221 3.8967 1.1633 6.0312 1.1875 4.4096 0.05 8.1711-1.6818 11.312-4.3125 1.5475 5.8506 3.8229 9.4197 6.625 9.7187 0.25377 0.027 0.52529 0.026 0.78125 0v0.094l313.81 33.5 5.5938 0.5938h0.0937l0.6875 0.062 7.5312 0.8126v-0.031c7.2573-0.2429 15.375-22.072 18.312-49.594s-0.39501-50.543-7.4375-52.313v-0.031l-7.5312-0.8125-0.65625-0.062-0.3125-0.031c0.0631 0 0.12458-0.01 0.1875 0l-9.1562-0.9688-0.65625-0.062c-0.0429-0.01-0.0827-0.027-0.125-0.031-0.0629-0.01-0.12444 0-0.1875 0l-48.625-5.1874 63.844 1.875v-0.063c7.218-0.796 13.622-23.176 14.438-50.844 0.73426-24.899-3.3105-45.772-9.3438-50.594 1.3932-6.6564 2.5162-14.121 3.1562-22.094 2.2148-27.589-1.726-50.51-8.8125-52.094v-0.0625l-7.5625-0.59375-0.78125-0.0625-9.1875-0.75-137.47-11.031 144.22 4.5625 0.78125 0.0312 7.5625 0.25v-0.0625c7.2284-0.73741 13.683-23.119 14.562-50.812 0.87841-27.666-4.1258-50.388-11.281-51.625v-0.0312l-0.5-0.0312h-0.125l-6.9688-0.21875-0.78125-0.0312-9.2188-0.28125-0.78125-0.03235h-0.0937l-3.9375-0.125h22.281v-0.0312c7.1914-1.0085 12.938-23.57 12.938-51.25 0-20.211-3.0779-37.676-7.5312-46.031 2.8588-9.4042 4.6875-23.282 4.6875-38.812 0-20.164-3.0633-37.623-7.5-46l5.2812-0.25v-0.0625c7.1336-1.3494 11.846-24.14 10.594-51.781-0.4805-10.61-1.7755-20.421-3.5938-28.531 3.2812-9.2599 5.7141-22.998 6.4375-38.469 1.2929-27.649-3.3952-50.468-10.531-51.812v-0.0312l-0.5-0.0312h-0.0937l-1.25-0.0625c5.1981-7.2917 9.178-25.836 9.6562-47.656 0.60649-27.673-4.6452-50.333-11.812-51.5v-0.0312h-0.3125c-0.0632-5e-3 -0.12398-0.0299-0.1875-0.0312s-0.12394 0.0293-0.1875 0.0312l-6.8751-0.15645v-0.0312h-0.81245l-9.1876-0.2188v0.0312l-0.78125-0.0312h-0.0312l-8.1562-0.1875 25.656-0.84375v-0.0625c7.1536-1.2477 12.138-23.992 11.219-51.656s-7.4048-49.977-14.625-50.75v-0.0625l-7.5938 0.25-0.78125 0.0312-9.2188 0.3125-295.84 9.8438v-0.0312l-0.78125 0.0312c0.0718-2e-3 0.14469 0.028 0.21875 0.0312h-0.46875c0.0836-9e-3 0.16581-0.0284 0.25-0.0312l-9.1875 0.3125v0.0312h-0.78125c-0.0409 1e-3 -0.0842 0.0285-0.125 0.0312l-5.125 0.15625 0.0312 0.0937c-0.25348-0.0452-0.55729-0.10175-0.8125-0.0937-3.956 0.13141-7.2625 6.8198-9.375 17.281-4.8819-16.154-10.538-36.483-12.25-49.375-2.0085-15.129 0.0625-50.094 0.0625-50.094a7.2507 7.2507 0 0 0 -7.5938 -7.8125zm1.4688 135.62c0.75387 0.01 1.5163 0.051 2.2812 0.0937 3.0598 0.17086 6.181 0.61268 9.1875 1.3125 0.41315 0.0962 0.81071 0.20663 1.2188 0.3125a7.2507 7.2507 0 0 0 3.2812 3.6562c7e-3 0.24136-8e-3 0.47662 0 0.71875 0.12464 3.7525 0.36996 7.3898 0.6875 10.906-3.339-1.0067-7.0156-2.259-10.75-3.5625-6.302-2.1996-12.773-4.494-18.875-5.6875 0.0859-1.9266 0.12868-3.8222 0.15625-5.6875 1.8211-0.74681 3.9456-1.3108 6.3125-1.6562 2.0429-0.29817 4.2384-0.43556 6.5-0.40625zm-13.562 16.75c4.8785 1.0993 10.712 3.0628 16.531 5.0938 5.0447 1.7608 10.063 3.541 14.812 4.75 1.4247 9.5867 3.5553 17.627 6.0625 23-0.15322 0.3931-0.28819 0.80449-0.4375 1.2188-1.9607-2.1793-4.3507-4.0513-6.875-5.6562-6.3401-4.031-14.05-6.942-21.281-9.7812-3.9321-1.5439-7.445-3.0779-10.625-4.625 0.75322-4.3864 1.367-9.0762 1.8125-14zm-4.7188 27.125c2.6182 3.394 5.4652 6.7834 8.4375 10.188 6.3237 7.2425 12.695 14.588 18.281 21.875-3.5116 1.9959-7.3647 3.9586-11.531 5.9062-2.9078 1.3592-5.8309 2.7442-8.6562 4.2188-1.0333-16.347-4.0166-30.243-7.8438-38 0.45435-1.3298 0.89085-2.703 1.3125-4.1875zm12 0.46875c6.6845 2.6309 13.31 5.3222 18.062 8.3438 5.167 3.2851 7.7027 6.3662 7.8125 10.344 0.0805 2.9146-1.0321 5.2505-3.4375 7.5938-6.0732-7.8086-13.048-15.263-19.312-22.438-1.1505-1.3177-2.0297-2.5462-3.125-3.8438zm20 38.781c1.3566 2.056 2.5878 4.0953 3.6875 6.125-0.0197 0.62632-0.0487 1.243-0.0625 1.875-0.23272 10.618 0.3874 20.473 1.6562 28.688-0.24411 0.52987-0.48677 1.064-0.75 1.5938-3.3444-0.59141-6.7548-1.0703-10.156-1.5312-7.5347-1.021-14.903-2.0719-20.062-4l-0.25-0.0937c0.62081-6.0026 0.89929-12.655 0.8125-19.719 3.4464-2.0802 7.6675-4.1018 12.062-6.1562 4.4275-2.0696 8.8675-4.3113 13.062-6.7812zm-27.188 41.625c6.296 2.0858 13.433 2.9968 20.375 3.9375 2.2841 0.30952 4.3854 0.68978 6.5625 1.0312-1.0764 1.6813-2.1469 3.346-3.3125 5.0625-4.8516 7.1444-10.201 14.585-13.469 23-2.2552-15.21-6.2206-26.81-10.625-30.75 0.15556-0.7483 0.32603-1.4939 0.46875-2.2812zm35.531 8.0938c1.5156 4.46 3.3042 7.612 5.3125 9-0.84169 2.1842-1.6451 4.6508-2.375 7.375-1.4268 0.61106-2.9411 1.2166-4.5625 1.8125-4.0956 1.5051-8.6805 2.9661-13.031 4.9375 2.7776-5.3306 6.3807-10.674 10.125-16.188 1.5366-2.2627 3.0605-4.5762 4.5312-6.9375zm0.6875 26.812c-1.168 6.6946-2.033 14.205-2.4062 22.188-1.032 22.069 1.7403 41.054 6.5312 48.5-3.3387 1.8296-6.0399 8.5327-7.7188 18.188-0.72573-1.3666-1.5134-2.711-2.3438-4.0312-1.1445-11.319-4.4972-22.273-7.6562-32.906-4.2385-14.267-7.9068-27.954-6.4375-41.219 3.1552-4.3191 11.406-7.541 20.031-10.719zm-25.094 43.688c0.93297 3.6282 1.9132 7.2283 2.9688 10.781 1.2068 4.0623 2.3864 8.0798 3.4688 12.062-3.4647-5.2208-6.333-10.353-7.0625-15.344-0.0817-0.55864-0.14998-1.1249-0.21875-1.6875 0.31375-1.8348 0.60744-3.78 0.84375-5.8125zm-5.4375 20.781c3.4856 6.8314 8.4776 12.903 12.719 18.719 1.1614 1.5926 2.1467 3.1047 3.1562 4.625 0.2366 3.1467 0.34528 6.274 0.0937 9.375-0.51923 6.4027-2.1745 12.696-4.2188 18.969-2.1715 0.93639-4.5017 1.8601-6.9375 2.7812-1.4088 0.53277-2.8363 1.0545-4.25 1.625 0.0735-2.1717 0.125-4.3769 0.125-6.625 0-19.786-2.9183-36.948-7.2188-45.5l0.9375-0.0312-0.0312-0.0937c0.25391 0.0418 0.52632 0.0743 0.78125 0.0625 1.7677-0.082 3.4082-1.4666 4.8438-3.9062zm25.156 53.969c0.0322 1.1803 0.0707 2.3626 0.125 3.5625 0.52496 11.592 2.0046 22.212 4.0938 30.719-2.4132 0.38244-4.642 3.1988-6.5625 7.8125-4.8164-3.9382-10.764-6.6172-15.875-9.3125-0.11374-0.06-0.19946-0.12755-0.3125-0.1875 0.0245-0.051 0.038-0.10524 0.0625-0.15625 4.4398-9.2286 8.913-18.658 12.406-28.438 0.65951-0.34773 1.3618-0.61603 2-1 1.4195-0.8541 2.7987-1.8631 4.0625-3zm-17.562 8.9688c-2.6428 6.2957-5.5269 12.595-8.5938 18.969-0.38309-0.27973-0.79522-0.53276-1.1875-0.8125 0.91551-4.4482 1.6326-9.4803 2.125-14.938 2.202-1.1011 4.8482-2.1518 7.6562-3.2188zm-4.75 31.719c6.8886 3.6327 13.439 7.1191 17 11.125-2.063 9.0148-3.3438 20.777-3.3438 33.688 0 12.542 1.1974 24.027 3.1562 32.938-0.29918 1.9507-0.5704 3.8972-0.8125 5.8438-2.1058 16.931-13.688 34.855-11.438 55.312 0.77413 7.0371 4.4441 12.628 7.6562 17.656s5.9815 9.5381 6.6562 13.969c1.7829 11.707-0.90166 23.96-3.75 36.719-1.429-6.0754-3.6874-11.953-6.0312-17.625-4.5131-10.922-9.2339-21.325-9.9375-31.5-1.012-14.635 6.8637-30.679 5.7188-48.562-0.56007-8.7481-2.9893-16.97-5.8125-24.906 1.9953-8.1474 3.4903-18.055 4.1562-28.812 1.4035-22.673-1.2516-42.133-6.1875-49.188 0.96085-2.2157 1.9377-4.4317 2.9688-6.6562zm-11.312 3.4375c-0.0186 0.0429-0.044 0.0821-0.0625 0.125h-0.0312l0.0937-0.125zm5.4688 95.594c0.92271 3.7133 1.5767 7.4107 1.8125 11.094 0.1482 2.3147 0.0642 4.6765-0.15625 7.0625-0.50719-6.1828-1.3352-11.852-2.375-16.781 0.24534-0.43731 0.47818-0.89347 0.71875-1.375zm23.031 14.719c-0.42839 5.012-0.65625 10.348-0.65625 15.906 0 6.4944 0.32938 12.688 0.90625 18.406-2.0914-3.5396-3.6702-6.8427-4.0312-10.125-0.85836-7.8028 1.1722-15.797 3.7812-24.188zm-25 56.125c2.1443 8.1222 5.6345 15.768 8.6875 23.156 4.4127 10.679 7.8699 20.683 6.5625 30.531-0.79877 6.017-5.0887 11.595-10.188 17.781-0.36731 0.44562-0.75154 0.89177-1.125 1.3438 0.33317-5.7812 0.41294-12.016 0.125-18.562-0.82262-18.704-4.1534-34.948-8.4688-43.719 1.6419-2.402 3.1475-6.02 4.4062-10.531zm18.094 69.062c-0.24381 14.126 3.8581 28.037 6.5938 41.188 0.36037 1.7324 0.69875 3.4603 1 5.1562-2.3261 8.3576-4.1498 18.756-5.0625 30.125-0.11874 1.479-0.19732 2.9252-0.28125 4.375-0.90428 0.51295-1.9334 1.0585-3.0938 1.625-1.8236 0.89032-3.7884 1.8965-5.6875 3.3438-1.5206-9.0441-4.3018-17.765-6.6562-26.219-3.2703-11.742-5.6702-22.884-3.7188-33.594 1.0985-6.0281 5.6138-11.706 10.75-17.938 2.0829-2.5269 4.2099-5.2161 6.1562-8.0625zm-26.438 37.062c0.0191 0.41751 0.0355 0.83356 0.0625 1.25l-5.9375-0.21875-9.125-0.34375h-0.0937l-0.3125-0.0312 0.65625-0.0312 9.2188-0.40625 5.5312-0.21875zm28.344 54c-0.028 10.901 1.0054 20.321 2.8125 27.031-1.9368-2.7578-3.6339-5.4479-4.9375-8.0938-2.6072-5.2916-3.6707-10.103-2.4688-15.219 0.14823-0.63088 0.44864-1.093 1.4062-1.8438 0.73607-0.57703 1.8937-1.214 3.1875-1.875zm-16.25 5.3125c5e-3 0.12535 0.0275 0.24975 0.0312 0.375 0.57826 19.601-2.3323 39.361-5.1875 59.375-0.90255-7.5262-2.2044-14.384-3.7812-20.125 4.298-7.2595 7.7278-22.026 8.9375-39.625zm8.4062 21.312c2.9344 4.9806 6.3778 9.7485 9.9688 14.344 2.2718 2.9072 4.4734 5.7525 6.5 8.5625-1.4738 7.7376-2.4929 16.816-2.7812 26.594-0.14657 4.9701-0.0866 9.7578 0.125 14.312-0.65917 0.57722-1.3149 1.1621-2 1.75-7.3542 6.3112-16.02 13.293-17.312 24.281-1.4016 11.913 5.892 21.552 12.156 30.25 1.9651 2.7287 3.7946 5.3653 5.4062 7.9376-0.10634 0.883-0.2169 1.7605-0.3125 2.6562-1.252 11.729-1.3554 22.605-0.53125 31.406-2.8161 4.3328-6.0224 6.7256-9.375 6.6876-1.3203-0.015-2.4834-0.2825-3.5938-0.8126 1.6288-9.7637 1.3307-24.477-1.25-40.687-2.2909-14.39-5.945-27.088-9.9375-35.906 1.9458-8.5817 3.9159-17.344 4.875-26.25 2.3047-21.402 6.522-43.061 8.0625-65.125zm18.719 11.031 0.71875 0.0625c-0.0641 0.19331-0.12415 0.39664-0.1875 0.59375-0.17385-0.22165-0.35785-0.43543-0.53125-0.65625zm-4.0312 63.812c1.0163 8.5319 2.709 15.582 4.8438 20.219-2.0798 5.4888-3.9827 12.355-5.4688 20.062l-0.15625-0.2187c-6.2577-8.6892-11.455-16.413-10.562-24 0.6719-5.711 5.338-10.728 11.344-16.063z" fill-opacity=".9961" filter="url(#j)" opacity=".5"/>
  <path d="m-156.89 120.26a7.2507 7.2507 0 0 0 -4.0913 6.1483s-2.4458 34.023 0.065 52.934c3.6757 27.686 20.698 76.736 20.698 76.736a7.2507 7.2507 0 1 0 13.696 -4.6801s-16.86-50.068-20.034-73.971c-2.0085-15.129 0.0528-50.081 0.0528-50.081a7.2507 7.2507 0 0 0 -10.387 -7.0869z" fill="#4d4d4d" fill-opacity=".9961"/>
  <path d="m-155.19 246.28c-1.7654 0.0688-3.5164 0.22028-5.2188 0.46875-6.8093 0.99388-13.174 3.4585-17.312 8.5-2.5426 3.0977-4.1736 6.4156-5.0312 9.8125-1.8665 1.4527-3.4147 3.407-4.2812 5.7812-1.3253 3.6312-1.277 7.4444 0.0625 10.625s3.6826 5.6215 6.4062 7.6562c1.4313 1.0693 3.0129 2.0213 4.6562 2.9375 3.7612 5.7525 8.4358 11.428 13.438 17.156 6.3237 7.2425 12.695 14.588 18.281 21.875-3.5116 1.9959-7.3647 3.9586-11.531 5.9062-6.3224 2.9554-12.804 5.9258-17.906 10.031s-8.9656 10.188-7.9062 17.406c1.1226 7.6489 7.1846 12.449 13.844 14.938s14.443 3.449 21.969 4.4688c2.2841 0.30952 4.3854 0.68978 6.5625 1.0312-1.0764 1.6813-2.1469 3.346-3.3125 5.0625-6.5829 9.694-14.112 19.912-16.062 32.406-7.8063 13.629-7.9975 30.418-5.875 44.938 1.7689 12.101 10.153 21.715 16.719 30.719 1.1614 1.5926 2.1467 3.1047 3.1562 4.625 0.2366 3.1467 0.34523 6.274 0.0937 9.375-0.51923 6.4027-2.1745 12.696-4.2188 18.969-2.1715 0.93639-4.5017 1.8601-6.9375 2.7812-4.3896 1.66-8.935 3.3482-12.812 6.0312s-7.224 6.9227-7.4688 12.375c-0.2511 5.5934 2.429 10.366 5.9688 13.719 1.4074 1.3329 3.007 2.4145 4.625 3.5-6.7457 14.394-12.809 29.318-13.438 45.688-0.49402 12.863 3.7024 24.674 7.9375 36s8.4957 22.195 9.1875 33c0.93822 14.654-6.9246 30.702-5.6875 48.594 0.85804 12.409 6.181 23.634 10.594 34.312s7.8699 20.683 6.5625 30.531c-0.79877 6.017-5.0887 11.595-10.188 17.781s-10.97 12.92-12.625 22c-2.3712 13.012 0.55935 25.546 3.9062 37.562s7.108 23.612 7.4375 34.781c0.82487 27.96-5.4209 56.241-8.5312 85.125-2.5544 23.721-14.825 49.574-8.5 75.812 1.6316 6.7678 3.9388 15.558 7.875 23.094 1.9681 3.768 4.3511 7.263 7.5 9.9688s7.2295 4.5733 11.781 4.625c8.0098 0.091 13.932-5.6642 17.75-12.094s6.0317-14.018 6.7188-20.469c1.2692-11.917-6.0548-21.53-12.312-30.219s-11.455-16.413-10.562-24c0.77721-6.6061 6.8898-12.277 14.25-18.594s15.982-13.307 17.188-24.312c1.6784-15.32-8.8596-27.739-17.781-39.156-4.4608-5.7084-8.6741-11.24-11.281-16.531s-3.6707-10.103-2.4688-15.219c0.14823-0.63088 0.44864-1.093 1.4062-1.8438s2.5251-1.5809 4.3438-2.4688c3.6372-1.7758 8.8057-3.727 11.156-9.25 5.8164-13.667 3.9693-28.021 1.0938-41.844s-6.766-27.397-6.4375-39.781c0.57394-21.634 12.285-44.696 8.5312-69.344-1.0578-6.9459-4.7858-12.424-7.9688-17.406s-5.8283-9.4422-6.3125-13.844c-1.7936-16.305 8.9786-33.48 11.438-53.25 2.8521-22.932 12.518-49.578 2.5312-73.688-4.1786-10.088-14.859-14.465-23.281-18.906-0.11374-0.06-0.19946-0.12755-0.3125-0.1875 0.0245-0.051 0.038-0.10524 0.0625-0.15625 4.4398-9.2286 8.913-18.658 12.406-28.438 0.65951-0.34773 1.3618-0.61603 2-1 4.1479-2.4958 8.02-6.1055 9.3438-11.375 2.3466-9.3411-1.0818-17.647-5.8438-25.219-1.1445-11.319-4.4972-22.273-7.6562-32.906-4.2385-14.267-7.9068-27.954-6.4375-41.219 3.2508-4.4499 11.907-7.7273 20.812-11 4.6511-1.7092 9.2219-3.4794 13-6.4062s6.6858-7.6954 6.25-13.25c-0.30164-3.8445-1.8993-7.2818-4.2812-9.8125s-5.4021-4.2295-8.6562-5.5c-0.8572-0.33466-1.792-0.55961-2.6875-0.84375 2.5269-5.5028 4.2656-11.368 4.2188-17.812-0.0722-9.925-4.2442-19.165-10.062-27.938 4.2015-3.8646 7.3578-8.8308 7.1875-15-0.21666-7.8463-5.6287-13.625-11.969-17.656s-14.05-6.942-21.281-9.7812c-4.7227-1.8543-8.8873-3.6986-12.531-5.5625-1.1508-1.9043-2.1228-3.7517-2.875-5.5312-1.279-3.0261-1.8829-5.679-1.9375-8.25 1.1894-0.16743 2.6012-0.24141 4.4062-0.0312 5.482 0.63828 13.084 3.2008 20.656 5.8438s15.076 5.3766 21.719 6.0625c3.3215 0.34296 6.6006 0.25407 9.625-1.375s5.1345-5.0508 5.5938-8.7812c0.82105-6.6695-2.7956-12.555-7.8125-16.594s-11.578-6.8045-18.594-8.4375c-5.2616-1.2247-10.766-1.8001-16.062-1.5938zm4.8438 8.9688c3.0598 0.17086 6.181 0.61268 9.1875 1.3125 6.013 1.3996 11.536 3.8491 15.062 6.6875s4.9097 5.4886 4.5312 8.5625c-0.20986 1.7047-0.41485 1.7329-0.96875 2.0312s-2.122 0.62054-4.5 0.375c-4.756-0.49108-12.104-2.9783-19.688-5.625s-15.437-5.4517-22.562-6.2812c-0.81653-0.0951-1.6014-0.0555-2.4062-0.0937 0.31634-0.44399 0.47264-0.86037 0.84375-1.3125 2.0902-2.5466 6.2711-4.5486 11.719-5.3438 2.7238-0.39756 5.7214-0.48336 8.7812-0.3125zm-8.5625 44.25c6.6845 2.6309 13.31 5.3222 18.062 8.3438 5.167 3.2851 7.7027 6.3662 7.8125 10.344 0.0805 2.9146-1.0321 5.2505-3.4375 7.5938-6.0732-7.8086-13.048-15.263-19.312-22.438-1.1505-1.3177-2.0297-2.5462-3.125-3.8438zm20 38.781c5.1492 7.8038 8.6974 15.452 8.75 22.688 0.0386 5.3049-1.6615 10.447-4.2188 15.594-3.3444-0.59141-6.7548-1.0703-10.156-1.5312-7.5347-1.021-14.903-2.0719-20.062-4s-7.578-3.9353-8.1562-7.875c-0.5549-3.7808 0.92097-6.1319 4.7188-9.1875s9.7618-5.961 16.062-8.9062c4.4275-2.0696 8.8675-4.3113 13.062-6.7812zm9.0312 48.594c1.2621 0.34409 2.7799 0.58465 3.8438 1 2.4588 0.95996 4.273 2.0772 5.4062 3.2812s1.7498 2.4123 1.9062 4.4062c0.20502 2.613-0.53043 3.7634-2.8125 5.5312s-6.2029 3.4572-10.656 5.0938c-4.0956 1.5051-8.6805 2.9661-13.031 4.9375 2.7776-5.3306 6.3807-10.674 10.125-16.188 1.7794-2.6204 3.5336-5.3114 5.2188-8.0625zm-26.594 65.594c1.3126 5.6809 2.8306 11.298 4.4688 16.812 1.2068 4.0623 2.3864 8.0798 3.4688 12.062-3.4647-5.2208-6.333-10.353-7.0625-15.344-0.64661-4.4234-0.87746-8.9789-0.875-13.531zm3.6562 89.75c-2.6428 6.2957-5.5269 12.595-8.5938 18.969-0.81254-0.59331-1.7461-1.1856-2.375-1.7812-2.3462-2.222-3.3142-4.021-3.1875-6.8438 0.1055-2.35 1.0672-3.6989 3.625-5.4688 2.4791-1.7154 6.3528-3.2873 10.531-4.875zm-4.75 31.719c8.7014 4.5887 16.893 8.9412 19.156 14.406 8.2513 19.92-0.12638 44.826-3.1562 69.188-2.1058 16.931-13.688 34.855-11.438 55.312 0.77413 7.0371 4.4441 12.628 7.6562 17.656s5.9815 9.5381 6.6562 13.969c1.7829 11.707-0.90166 23.96-3.75 36.719-1.429-6.0754-3.6874-11.953-6.0312-17.625-4.5131-10.922-9.2339-21.325-9.9375-31.5-1.012-14.635 6.8637-30.679 5.7188-48.562-0.81353-12.707-5.5639-24.336-9.75-35.531s-7.8164-21.914-7.4062-32.594c0.54072-14.08 5.8878-27.643 12.281-41.438zm10.281 238.94c-0.24381 14.126 3.8581 28.037 6.5938 41.188 2.7762 13.346 4.0905 25.63-0.5625 36.562-0.56232 1.3212-3.0944 2.873-6.875 4.7188-1.8236 0.89032-3.7884 1.8965-5.6875 3.3438-1.5206-9.0441-4.3018-17.765-6.6562-26.219-3.2703-11.742-5.6702-22.884-3.7188-33.594 1.0985-6.0281 5.6138-11.706 10.75-17.938 2.0829-2.5269 4.2099-5.2161 6.1562-8.0625zm-5.9375 117.69c2.9344 4.9806 6.3778 9.7485 9.9688 14.344 8.9884 11.502 17.123 22.149 15.969 32.688-0.72361 6.6049-6.7708 12.22-14.125 18.531s-16.02 13.293-17.312 24.281c-1.4016 11.913 5.892 21.552 12.156 30.25s11.529 16.488 10.719 24.094c-0.54411 5.1089-2.5316 11.876-5.5 16.875s-6.4165 7.7598-10.031 7.7188c-2.3155-0.026-4.1411-0.8178-6.0625-2.4688s-3.7793-4.2289-5.4062-7.3438c-3.2539-6.2296-5.5375-14.477-7.125-21.062-5.3581-22.226 5.9044-46.937 8.6875-72.781 2.3047-21.402 6.522-43.061 8.0625-65.125z" fill="url(#i)"/>
  <g transform="matrix(.06344 -.99799 .99799 .06344 -700.69 29.838)">
   <path d="m-253.67 205.04v329.59h0.0937c-0.0535 0.2517-0.0937 0.52604-0.0937 0.78125 0 7.4242 22.959 13.438 51.281 13.438s51.281-6.0132 51.281-13.438c0-0.25535-0.0401-0.52941-0.0937-0.78125h0.0937v-329.59h-102.56z" fill="url(#c)"/>
   <path transform="matrix(1.0842 0 0 1 -1077.4 81.566)" d="m854.36 123.97c0 7.4242-21.176 13.443-47.299 13.443s-47.299-6.0185-47.299-13.443 21.176-13.443 47.299-13.443 47.299 6.0186 47.299 13.443z" fill="url(#b)"/>
   <path d="m-253.65625,518.625v.78125c0-.25521.0402-.52955.0937-.78125h-.0937zm0,.78125v9.21875h.0937c-.0535.2517-.0937.52604-.0937.78125 0,7.42425 22.95898,13.4375 51.28125,13.4375s51.28125-6.01325 51.28125-13.4375c0-.25535-.0402-.52941-.0937-.78125h.0937v-9.21875c0,7.42425-22.95898,13.4375-51.28125,13.4375s-51.28125-6.01325-51.28125-13.4375zm102.5625,0v-.78125h-.0937c.0536.25184.0937.5259.0937.78125z" fill="url(#a)"/>
   <path d="m-253.65625,212.625v.78125c0-.25521.0402-.52955.0937-.78125h-.0937zm0,.78125v9.21875h.0937c-.0535.2517-.0937.52604-.0937.78125 0,7.42425 22.95898,13.4375 51.28125,13.4375s51.28125-6.01325 51.28125-13.4375c0-.25535-.0402-.52941-.0937-.78125h.0937v-9.21875c0,7.42425-22.95898,13.4375-51.28125,13.4375s-51.28125-6.01325-51.28125-13.4375zm102.5625,0v-.78125h-.0937c.0536.25184.0937.5259.0937.78125z" fill="url(#a)"/>
  </g>
  <g transform="matrix(-.03141 -.99951 .99951 -.03141 -719.02 162.39)">
   <path d="m-253.67 205.04v329.59h0.0937c-0.0535 0.2517-0.0937 0.52604-0.0937 0.78125 0 7.4242 22.959 13.438 51.281 13.438s51.281-6.0132 51.281-13.438c0-0.25535-0.0401-0.52941-0.0937-0.78125h0.0937v-329.59h-102.56z" fill="url(#c)"/>
   <path transform="matrix(1.0842 0 0 1 -1077.4 81.566)" d="m854.36 123.97c0 7.4242-21.176 13.443-47.299 13.443s-47.299-6.0185-47.299-13.443 21.176-13.443 47.299-13.443 47.299 6.0186 47.299 13.443z" fill="url(#b)"/>
   <path d="m-253.65625,518.625v.78125c0-.25521.0402-.52955.0937-.78125h-.0937zm0,.78125v9.21875h.0937c-.0535.2517-.0937.52604-.0937.78125 0,7.42425 22.95898,13.4375 51.28125,13.4375s51.28125-6.01325 51.28125-13.4375c0-.25535-.0402-.52941-.0937-.78125h.0937v-9.21875c0,7.42425-22.95898,13.4375-51.28125,13.4375s-51.28125-6.01325-51.28125-13.4375zm102.5625,0v-.78125h-.0937c.0536.25184.0937.5259.0937.78125z" fill="url(#a)"/>
   <path d="m-253.65625,212.625v.78125c0-.25521.0402-.52955.0937-.78125h-.0937zm0,.78125v9.21875h.0937c-.0535.2517-.0937.52604-.0937.78125 0,7.42425 22.95898,13.4375 51.28125,13.4375s51.28125-6.01325 51.28125-13.4375c0-.25535-.0402-.52941-.0937-.78125h.0937v-9.21875c0,7.42425-22.95898,13.4375-51.28125,13.4375s-51.28125-6.01325-51.28125-13.4375zm102.5625,0v-.78125h-.0937c.0536.25184.0937.5259.0937.78125z" fill="url(#a)"/>
  </g>
  <g transform="matrix(-.04632 -.99893 .99893 -.04632 -711.82 254.6)">
   <path d="m-253.67 205.04v329.59h0.0937c-0.0535 0.2517-0.0937 0.52604-0.0937 0.78125 0 7.4242 22.959 13.438 51.281 13.438s51.281-6.0132 51.281-13.438c0-0.25535-0.0401-0.52941-0.0937-0.78125h0.0937v-329.59h-102.56z" fill="url(#c)"/>
   <path transform="matrix(1.0842 0 0 1 -1077.4 81.566)" d="m854.36 123.97c0 7.4242-21.176 13.443-47.299 13.443s-47.299-6.0185-47.299-13.443 21.176-13.443 47.299-13.443 47.299 6.0186 47.299 13.443z" fill="url(#b)"/>
   <path d="m-253.65625,518.625v.78125c0-.25521.0402-.52955.0937-.78125h-.0937zm0,.78125v9.21875h.0937c-.0535.2517-.0937.52604-.0937.78125 0,7.42425 22.95898,13.4375 51.28125,13.4375s51.28125-6.01325 51.28125-13.4375c0-.25535-.0402-.52941-.0937-.78125h.0937v-9.21875c0,7.42425-22.95898,13.4375-51.28125,13.4375s-51.28125-6.01325-51.28125-13.4375zm102.5625,0v-.78125h-.0937c.0536.25184.0937.5259.0937.78125z" fill="url(#a)"/>
   <path d="m-253.65625,212.625v.78125c0-.25521.0402-.52955.0937-.78125h-.0937zm0,.78125v9.21875h.0937c-.0535.2517-.0937.52604-.0937.78125 0,7.42425 22.95898,13.4375 51.28125,13.4375s51.28125-6.01325 51.28125-13.4375c0-.25535-.0402-.52941-.0937-.78125h.0937v-9.21875c0,7.42425-22.95898,13.4375-51.28125,13.4375s-51.28125-6.01325-51.28125-13.4375zm102.5625,0v-.78125h-.0937c.0536.25184.0937.5259.0937.78125z" fill="url(#a)"/>
  </g>
  <g transform="matrix(0 -1 1 0 -708.56 326.36)">
   <path d="m-253.67 205.04v329.59h0.0937c-0.0535 0.2517-0.0937 0.52604-0.0937 0.78125 0 7.4242 22.959 13.438 51.281 13.438s51.281-6.0132 51.281-13.438c0-0.25535-0.0401-0.52941-0.0937-0.78125h0.0937v-329.59h-102.56z" fill="url(#c)"/>
   <path transform="matrix(1.0842 0 0 1 -1077.4 81.566)" d="m854.36 123.97c0 7.4242-21.176 13.443-47.299 13.443s-47.299-6.0185-47.299-13.443 21.176-13.443 47.299-13.443 47.299 6.0186 47.299 13.443z" fill="url(#b)"/>
   <path d="m-253.65625,518.625v.78125c0-.25521.0402-.52955.0937-.78125h-.0937zm0,.78125v9.21875h.0937c-.0535.2517-.0937.52604-.0937.78125 0,7.42425 22.95898,13.4375 51.28125,13.4375s51.28125-6.01325 51.28125-13.4375c0-.25535-.0402-.52941-.0937-.78125h.0937v-9.21875c0,7.42425-22.95898,13.4375-51.28125,13.4375s-51.28125-6.01325-51.28125-13.4375zm102.5625,0v-.78125h-.0937c.0536.25184.0937.5259.0937.78125z" fill="url(#a)"/>
   <path d="m-253.65625,212.625v.78125c0-.25521.0402-.52955.0937-.78125h-.0937zm0,.78125v9.21875h.0937c-.0535.2517-.0937.52604-.0937.78125 0,7.42425 22.95898,13.4375 51.28125,13.4375s51.28125-6.01325 51.28125-13.4375c0-.25535-.0402-.52941-.0937-.78125h.0937v-9.21875c0,7.42425-22.95898,13.4375-51.28125,13.4375s-51.28125-6.01325-51.28125-13.4375zm102.5625,0v-.78125h-.0937c.0536.25184.0937.5259.0937.78125z" fill="url(#a)"/>
  </g>
  <g transform="matrix(.06178 -.99809 .99809 .06178 -689.63 393.86)">
   <path d="m-253.67 205.04v329.59h0.0937c-0.0535 0.2517-0.0937 0.52604-0.0937 0.78125 0 7.4242 22.959 13.438 51.281 13.438s51.281-6.0132 51.281-13.438c0-0.25535-0.0401-0.52941-0.0937-0.78125h0.0937v-329.59h-102.56z" fill="url(#c)"/>
   <path transform="matrix(1.0842 0 0 1 -1077.4 81.566)" d="m854.36 123.97c0 7.4242-21.176 13.443-47.299 13.443s-47.299-6.0185-47.299-13.443 21.176-13.443 47.299-13.443 47.299 6.0186 47.299 13.443z" fill="url(#b)"/>
   <path d="m-253.65625,518.625v.78125c0-.25521.0402-.52955.0937-.78125h-.0937zm0,.78125v9.21875h.0937c-.0535.2517-.0937.52604-.0937.78125 0,7.42425 22.95898,13.4375 51.28125,13.4375s51.28125-6.01325 51.28125-13.4375c0-.25535-.0402-.52941-.0937-.78125h.0937v-9.21875c0,7.42425-22.95898,13.4375-51.28125,13.4375s-51.28125-6.01325-51.28125-13.4375zm102.5625,0v-.78125h-.0937c.0536.25184.0937.5259.0937.78125z" fill="url(#a)"/>
   <path d="m-253.65625,212.625v.78125c0-.25521.0402-.52955.0937-.78125h-.0937zm0,.78125v9.21875h.0937c-.0535.2517-.0937.52604-.0937.78125 0,7.42425 22.95898,13.4375 51.28125,13.4375s51.28125-6.01325 51.28125-13.4375c0-.25535-.0402-.52941-.0937-.78125h.0937v-9.21875c0,7.42425-22.95898,13.4375-51.28125,13.4375s-51.28125-6.01325-51.28125-13.4375zm102.5625,0v-.78125h-.0937c.0536.25184.0937.5259.0937.78125z" fill="url(#a)"/>
  </g>
  <g transform="matrix(0 -1 1 0 -709.99 504.08)">
   <path d="m-253.67 205.04v329.59h0.0937c-0.0535 0.2517-0.0937 0.52604-0.0937 0.78125 0 7.4242 22.959 13.438 51.281 13.438s51.281-6.0132 51.281-13.438c0-0.25535-0.0401-0.52941-0.0937-0.78125h0.0937v-329.59h-102.56z" fill="url(#c)"/>
   <path transform="matrix(1.0842 0 0 1 -1077.4 81.566)" d="m854.36 123.97c0 7.4242-21.176 13.443-47.299 13.443s-47.299-6.0185-47.299-13.443 21.176-13.443 47.299-13.443 47.299 6.0186 47.299 13.443z" fill="url(#b)"/>
   <path d="m-253.65625,518.625v.78125c0-.25521.0402-.52955.0937-.78125h-.0937zm0,.78125v9.21875h.0937c-.0535.2517-.0937.52604-.0937.78125 0,7.42425 22.95898,13.4375 51.28125,13.4375s51.28125-6.01325 51.28125-13.4375c0-.25535-.0402-.52941-.0937-.78125h.0937v-9.21875c0,7.42425-22.95898,13.4375-51.28125,13.4375s-51.28125-6.01325-51.28125-13.4375zm102.5625,0v-.78125h-.0937c.0536.25184.0937.5259.0937.78125z" fill="url(#a)"/>
   <path d="m-253.65625,212.625v.78125c0-.25521.0402-.52955.0937-.78125h-.0937zm0,.78125v9.21875h.0937c-.0535.2517-.0937.52604-.0937.78125 0,7.42425 22.95898,13.4375 51.28125,13.4375s51.28125-6.01325 51.28125-13.4375c0-.25535-.0402-.52941-.0937-.78125h.0937v-9.21875c0,7.42425-22.95898,13.4375-51.28125,13.4375s-51.28125-6.01325-51.28125-13.4375zm102.5625,0v-.78125h-.0937c.0536.25184.0937.5259.0937.78125z" fill="url(#a)"/>
  </g>
  <g transform="matrix(-.04394 -.99903 .99903 -.04394 -718.52 619.98)">
   <path d="m-253.67 205.04v329.59h0.0937c-0.0535 0.2517-0.0937 0.52604-0.0937 0.78125 0 7.4242 22.959 13.438 51.281 13.438s51.281-6.0132 51.281-13.438c0-0.25535-0.0401-0.52941-0.0937-0.78125h0.0937v-329.59h-102.56z" fill="url(#c)"/>
   <path transform="matrix(1.0842 0 0 1 -1077.4 81.566)" d="m854.36 123.97c0 7.4242-21.176 13.443-47.299 13.443s-47.299-6.0185-47.299-13.443 21.176-13.443 47.299-13.443 47.299 6.0186 47.299 13.443z" fill="url(#b)"/>
   <path d="m-253.65625,518.625v.78125c0-.25521.0402-.52955.0937-.78125h-.0937zm0,.78125v9.21875h.0937c-.0535.2517-.0937.52604-.0937.78125 0,7.42425 22.95898,13.4375 51.28125,13.4375s51.28125-6.01325 51.28125-13.4375c0-.25535-.0402-.52941-.0937-.78125h.0937v-9.21875c0,7.42425-22.95898,13.4375-51.28125,13.4375s-51.28125-6.01325-51.28125-13.4375zm102.5625,0v-.78125h-.0937c.0536.25184.0937.5259.0937.78125z" fill="url(#a)"/>
   <path d="m-253.65625,212.625v.78125c0-.25521.0402-.52955.0937-.78125h-.0937zm0,.78125v9.21875h.0937c-.0535.2517-.0937.52604-.0937.78125 0,7.42425 22.95898,13.4375 51.28125,13.4375s51.28125-6.01325 51.28125-13.4375c0-.25535-.0402-.52941-.0937-.78125h.0937v-9.21875c0,7.42425-22.95898,13.4375-51.28125,13.4375s-51.28125-6.01325-51.28125-13.4375zm102.5625,0v-.78125h-.0937c.0536.25184.0937.5259.0937.78125z" fill="url(#a)"/>
  </g>
  <g transform="matrix(.03644 -.99934 .99934 .03644 -702.37 680.71)">
   <path d="m-253.67 205.04v329.59h0.0937c-0.0535 0.2517-0.0937 0.52604-0.0937 0.78125 0 7.4242 22.959 13.438 51.281 13.438s51.281-6.0132 51.281-13.438c0-0.25535-0.0401-0.52941-0.0937-0.78125h0.0937v-329.59h-102.56z" fill="url(#c)"/>
   <path transform="matrix(1.0842 0 0 1 -1077.4 81.566)" d="m854.36 123.97c0 7.4242-21.176 13.443-47.299 13.443s-47.299-6.0185-47.299-13.443 21.176-13.443 47.299-13.443 47.299 6.0186 47.299 13.443z" fill="url(#b)"/>
   <path d="m-253.65625,518.625v.78125c0-.25521.0402-.52955.0937-.78125h-.0937zm0,.78125v9.21875h.0937c-.0535.2517-.0937.52604-.0937.78125 0,7.42425 22.95898,13.4375 51.28125,13.4375s51.28125-6.01325 51.28125-13.4375c0-.25535-.0402-.52941-.0937-.78125h.0937v-9.21875c0,7.42425-22.95898,13.4375-51.28125,13.4375s-51.28125-6.01325-51.28125-13.4375zm102.5625,0v-.78125h-.0937c.0536.25184.0937.5259.0937.78125z" fill="url(#a)"/>
   <path d="m-253.65625,212.625v.78125c0-.25521.0402-.52955.0937-.78125h-.0937zm0,.78125v9.21875h.0937c-.0535.2517-.0937.52604-.0937.78125 0,7.42425 22.95898,13.4375 51.28125,13.4375s51.28125-6.01325 51.28125-13.4375c0-.25535-.0402-.52941-.0937-.78125h.0937v-9.21875c0,7.42425-22.95898,13.4375-51.28125,13.4375s-51.28125-6.01325-51.28125-13.4375zm102.5625,0v-.78125h-.0937c.0536.25184.0937.5259.0937.78125z" fill="url(#a)"/>
  </g>
  <g transform="matrix(-.05434 -.99852 .99852 -.05434 -724.72 809.08)">
   <path d="m-253.67 205.04v329.59h0.0937c-0.0535 0.2517-0.0937 0.52604-0.0937 0.78125 0 7.4242 22.959 13.438 51.281 13.438s51.281-6.0132 51.281-13.438c0-0.25535-0.0401-0.52941-0.0937-0.78125h0.0937v-329.59h-102.56z" fill="url(#c)"/>
   <path transform="matrix(1.0842 0 0 1 -1077.4 81.566)" d="m854.36 123.97c0 7.4242-21.176 13.443-47.299 13.443s-47.299-6.0185-47.299-13.443 21.176-13.443 47.299-13.443 47.299 6.0186 47.299 13.443z" fill="url(#b)"/>
   <path d="m-253.65625,518.625v.78125c0-.25521.0402-.52955.0937-.78125h-.0937zm0,.78125v9.21875h.0937c-.0535.2517-.0937.52604-.0937.78125 0,7.42425 22.95898,13.4375 51.28125,13.4375s51.28125-6.01325 51.28125-13.4375c0-.25535-.0402-.52941-.0937-.78125h.0937v-9.21875c0,7.42425-22.95898,13.4375-51.28125,13.4375s-51.28125-6.01325-51.28125-13.4375zm102.5625,0v-.78125h-.0937c.0536.25184.0937.5259.0937.78125z" fill="url(#a)"/>
   <path d="m-253.65625,212.625v.78125c0-.25521.0402-.52955.0937-.78125h-.0937zm0,.78125v9.21875h.0937c-.0535.2517-.0937.52604-.0937.78125 0,7.42425 22.95898,13.4375 51.28125,13.4375s51.28125-6.01325 51.28125-13.4375c0-.25535-.0402-.52941-.0937-.78125h.0937v-9.21875c0,7.42425-22.95898,13.4375-51.28125,13.4375s-51.28125-6.01325-51.28125-13.4375zm102.5625,0v-.78125h-.0937c.0536.25184.0937.5259.0937.78125z" fill="url(#a)"/>
  </g>
  <g transform="matrix(-.15722 -.98756 .98756 -.15722 -730.06 944.27)">
   <path d="m-253.67 205.04v329.59h0.0937c-0.0535 0.2517-0.0937 0.52604-0.0937 0.78125 0 7.4242 22.959 13.438 51.281 13.438s51.281-6.0132 51.281-13.438c0-0.25535-0.0401-0.52941-0.0937-0.78125h0.0937v-329.59h-102.56z" fill="url(#c)"/>
   <path transform="matrix(1.0842 0 0 1 -1077.4 81.566)" d="m854.36 123.97c0 7.4242-21.176 13.443-47.299 13.443s-47.299-6.0185-47.299-13.443 21.176-13.443 47.299-13.443 47.299 6.0186 47.299 13.443z" fill="url(#b)"/>
   <path d="m-253.65625,518.625v.78125c0-.25521.0402-.52955.0937-.78125h-.0937zm0,.78125v9.21875h.0937c-.0535.2517-.0937.52604-.0937.78125 0,7.42425 22.95898,13.4375 51.28125,13.4375s51.28125-6.01325 51.28125-13.4375c0-.25535-.0402-.52941-.0937-.78125h.0937v-9.21875c0,7.42425-22.95898,13.4375-51.28125,13.4375s-51.28125-6.01325-51.28125-13.4375zm102.5625,0v-.78125h-.0937c.0536.25184.0937.5259.0937.78125z" fill="url(#a)"/>
   <path d="m-253.65625,212.625v.78125c0-.25521.0402-.52955.0937-.78125h-.0937zm0,.78125v9.21875h.0937c-.0535.2517-.0937.52604-.0937.78125 0,7.42425 22.95898,13.4375 51.28125,13.4375s51.28125-6.01325 51.28125-13.4375c0-.25535-.0402-.52941-.0937-.78125h.0937v-9.21875c0,7.42425-22.95898,13.4375-51.28125,13.4375s-51.28125-6.01325-51.28125-13.4375zm102.5625,0v-.78125h-.0937c.0536.25184.0937.5259.0937.78125z" fill="url(#a)"/>
  </g>
  <g transform="matrix(-.0332 -.99945 -.99945 .0332 405.18 40.748)">
   <path d="m-253.67 205.04v329.59h0.0937c-0.0535 0.2517-0.0937 0.52604-0.0937 0.78125 0 7.4242 22.959 13.438 51.281 13.438s51.281-6.0132 51.281-13.438c0-0.25535-0.0401-0.52941-0.0937-0.78125h0.0937v-329.59h-102.56z" fill="url(#c)"/>
   <path transform="matrix(1.0842 0 0 1 -1077.4 81.566)" d="m854.36 123.97c0 7.4242-21.176 13.443-47.299 13.443s-47.299-6.0185-47.299-13.443 21.176-13.443 47.299-13.443 47.299 6.0186 47.299 13.443z" fill="url(#b)"/>
   <path d="m-253.65625,518.625v.78125c0-.25521.0402-.52955.0937-.78125h-.0937zm0,.78125v9.21875h.0937c-.0535.2517-.0937.52604-.0937.78125 0,7.42425 22.95898,13.4375 51.28125,13.4375s51.28125-6.01325 51.28125-13.4375c0-.25535-.0402-.52941-.0937-.78125h.0937v-9.21875c0,7.42425-22.95898,13.4375-51.28125,13.4375s-51.28125-6.01325-51.28125-13.4375zm102.5625,0v-.78125h-.0937c.0536.25184.0937.5259.0937.78125z" fill="url(#a)"/>
   <path d="m-253.65625,212.625v.78125c0-.25521.0402-.52955.0937-.78125h-.0937zm0,.78125v9.21875h.0937c-.0535.2517-.0937.52604-.0937.78125 0,7.42425 22.95898,13.4375 51.28125,13.4375s51.28125-6.01325 51.28125-13.4375c0-.25535-.0402-.52941-.0937-.78125h.0937v-9.21875c0,7.42425-22.95898,13.4375-51.28125,13.4375s-51.28125-6.01325-51.28125-13.4375zm102.5625,0v-.78125h-.0937c.0536.25184.0937.5259.0937.78125z" fill="url(#a)"/>
  </g>
  <g transform="matrix(.02191 -.99976 -.99976 -.02191 417.87 155.96)">
   <path d="m-253.67 205.04v329.59h0.0937c-0.0535 0.2517-0.0937 0.52604-0.0937 0.78125 0 7.4242 22.959 13.438 51.281 13.438s51.281-6.0132 51.281-13.438c0-0.25535-0.0401-0.52941-0.0937-0.78125h0.0937v-329.59h-102.56z" fill="url(#c)"/>
   <path transform="matrix(1.0842 0 0 1 -1077.4 81.566)" d="m854.36 123.97c0 7.4242-21.176 13.443-47.299 13.443s-47.299-6.0185-47.299-13.443 21.176-13.443 47.299-13.443 47.299 6.0186 47.299 13.443z" fill="url(#b)"/>
   <path d="m-253.65625,518.625v.78125c0-.25521.0402-.52955.0937-.78125h-.0937zm0,.78125v9.21875h.0937c-.0535.2517-.0937.52604-.0937.78125 0,7.42425 22.95898,13.4375 51.28125,13.4375s51.28125-6.01325 51.28125-13.4375c0-.25535-.0402-.52941-.0937-.78125h.0937v-9.21875c0,7.42425-22.95898,13.4375-51.28125,13.4375s-51.28125-6.01325-51.28125-13.4375zm102.5625,0v-.78125h-.0937c.0536.25184.0937.5259.0937.78125z" fill="url(#a)"/>
   <path d="m-253.65625,212.625v.78125c0-.25521.0402-.52955.0937-.78125h-.0937zm0,.78125v9.21875h.0937c-.0535.2517-.0937.52604-.0937.78125 0,7.42425 22.95898,13.4375 51.28125,13.4375s51.28125-6.01325 51.28125-13.4375c0-.25535-.0402-.52941-.0937-.78125h.0937v-9.21875c0,7.42425-22.95898,13.4375-51.28125,13.4375s-51.28125-6.01325-51.28125-13.4375zm102.5625,0v-.78125h-.0937c.0536.25184.0937.5259.0937.78125z" fill="url(#a)"/>
  </g>
  <g transform="matrix(.04671 -.99891 -.99891 -.04671 425.43 260.46)">
   <path d="m-253.67 205.04v329.59h0.0937c-0.0535 0.2517-0.0937 0.52604-0.0937 0.78125 0 7.4242 22.959 13.438 51.281 13.438s51.281-6.0132 51.281-13.438c0-0.25535-0.0401-0.52941-0.0937-0.78125h0.0937v-329.59h-102.56z" fill="url(#c)"/>
   <path transform="matrix(1.0842 0 0 1 -1077.4 81.566)" d="m854.36 123.97c0 7.4242-21.176 13.443-47.299 13.443s-47.299-6.0185-47.299-13.443 21.176-13.443 47.299-13.443 47.299 6.0186 47.299 13.443z" fill="url(#b)"/>
   <path d="m-253.65625,518.625v.78125c0-.25521.0402-.52955.0937-.78125h-.0937zm0,.78125v9.21875h.0937c-.0535.2517-.0937.52604-.0937.78125 0,7.42425 22.95898,13.4375 51.28125,13.4375s51.28125-6.01325 51.28125-13.4375c0-.25535-.0402-.52941-.0937-.78125h.0937v-9.21875c0,7.42425-22.95898,13.4375-51.28125,13.4375s-51.28125-6.01325-51.28125-13.4375zm102.5625,0v-.78125h-.0937c.0536.25184.0937.5259.0937.78125z" fill="url(#a)"/>
   <path d="m-253.65625,212.625v.78125c0-.25521.0402-.52955.0937-.78125h-.0937zm0,.78125v9.21875h.0937c-.0535.2517-.0937.52604-.0937.78125 0,7.42425 22.95898,13.4375 51.28125,13.4375s51.28125-6.01325 51.28125-13.4375c0-.25535-.0402-.52941-.0937-.78125h.0937v-9.21875c0,7.42425-22.95898,13.4375-51.28125,13.4375s-51.28125-6.01325-51.28125-13.4375zm102.5625,0v-.78125h-.0937c.0536.25184.0937.5259.0937.78125z" fill="url(#a)"/>
  </g>
  <g transform="matrix(-.04524 -.99898 -.99898 .04524 403.99 309.81)">
   <path d="m-253.67 205.04v329.59h0.0937c-0.0535 0.2517-0.0937 0.52604-0.0937 0.78125 0 7.4242 22.959 13.438 51.281 13.438s51.281-6.0132 51.281-13.438c0-0.25535-0.0401-0.52941-0.0937-0.78125h0.0937v-329.59h-102.56z" fill="url(#c)"/>
   <path transform="matrix(1.0842 0 0 1 -1077.4 81.566)" d="m854.36 123.97c0 7.4242-21.176 13.443-47.299 13.443s-47.299-6.0185-47.299-13.443 21.176-13.443 47.299-13.443 47.299 6.0186 47.299 13.443z" fill="url(#b)"/>
   <path d="m-253.65625,518.625v.78125c0-.25521.0402-.52955.0937-.78125h-.0937zm0,.78125v9.21875h.0937c-.0535.2517-.0937.52604-.0937.78125 0,7.42425 22.95898,13.4375 51.28125,13.4375s51.28125-6.01325 51.28125-13.4375c0-.25535-.0402-.52941-.0937-.78125h.0937v-9.21875c0,7.42425-22.95898,13.4375-51.28125,13.4375s-51.28125-6.01325-51.28125-13.4375zm102.5625,0v-.78125h-.0937c.0536.25184.0937.5259.0937.78125z" fill="url(#a)"/>
   <path d="m-253.65625,212.625v.78125c0-.25521.0402-.52955.0937-.78125h-.0937zm0,.78125v9.21875h.0937c-.0535.2517-.0937.52604-.0937.78125 0,7.42425 22.95898,13.4375 51.28125,13.4375s51.28125-6.01325 51.28125-13.4375c0-.25535-.0402-.52941-.0937-.78125h.0937v-9.21875c0,7.42425-22.95898,13.4375-51.28125,13.4375s-51.28125-6.01325-51.28125-13.4375zm102.5625,0v-.78125h-.0937c.0536.25184.0937.5259.0937.78125z" fill="url(#a)"/>
  </g>
  <g transform="matrix(0 -1 -1 0 404.96 416.36)">
   <path d="m-253.67 205.04v329.59h0.0937c-0.0535 0.2517-0.0937 0.52604-0.0937 0.78125 0 7.4242 22.959 13.438 51.281 13.438s51.281-6.0132 51.281-13.438c0-0.25535-0.0401-0.52941-0.0937-0.78125h0.0937v-329.59h-102.56z" fill="url(#c)"/>
   <path transform="matrix(1.0842 0 0 1 -1077.4 81.566)" d="m854.36 123.97c0 7.4242-21.176 13.443-47.299 13.443s-47.299-6.0185-47.299-13.443 21.176-13.443 47.299-13.443 47.299 6.0186 47.299 13.443z" fill="url(#b)"/>
   <path d="m-253.65625,518.625v.78125c0-.25521.0402-.52955.0937-.78125h-.0937zm0,.78125v9.21875h.0937c-.0535.2517-.0937.52604-.0937.78125 0,7.42425 22.95898,13.4375 51.28125,13.4375s51.28125-6.01325 51.28125-13.4375c0-.25535-.0402-.52941-.0937-.78125h.0937v-9.21875c0,7.42425-22.95898,13.4375-51.28125,13.4375s-51.28125-6.01325-51.28125-13.4375zm102.5625,0v-.78125h-.0937c.0536.25184.0937.5259.0937.78125z" fill="url(#a)"/>
   <path d="m-253.65625,212.625v.78125c0-.25521.0402-.52955.0937-.78125h-.0937zm0,.78125v9.21875h.0937c-.0535.2517-.0937.52604-.0937.78125 0,7.42425 22.95898,13.4375 51.28125,13.4375s51.28125-6.01325 51.28125-13.4375c0-.25535-.0402-.52941-.0937-.78125h.0937v-9.21875c0,7.42425-22.95898,13.4375-51.28125,13.4375s-51.28125-6.01325-51.28125-13.4375zm102.5625,0v-.78125h-.0937c.0536.25184.0937.5259.0937.78125z" fill="url(#a)"/>
  </g>
  <g transform="matrix(0 -1 -1 0 407.81 501.22)">
   <path d="m-253.67 205.04v329.59h0.0937c-0.0535 0.2517-0.0937 0.52604-0.0937 0.78125 0 7.4242 22.959 13.438 51.281 13.438s51.281-6.0132 51.281-13.438c0-0.25535-0.0401-0.52941-0.0937-0.78125h0.0937v-329.59h-102.56z" fill="url(#c)"/>
   <path transform="matrix(1.0842 0 0 1 -1077.4 81.566)" d="m854.36 123.97c0 7.4242-21.176 13.443-47.299 13.443s-47.299-6.0185-47.299-13.443 21.176-13.443 47.299-13.443 47.299 6.0186 47.299 13.443z" fill="url(#b)"/>
   <path d="m-253.65625,518.625v.78125c0-.25521.0402-.52955.0937-.78125h-.0937zm0,.78125v9.21875h.0937c-.0535.2517-.0937.52604-.0937.78125 0,7.42425 22.95898,13.4375 51.28125,13.4375s51.28125-6.01325 51.28125-13.4375c0-.25535-.0402-.52941-.0937-.78125h.0937v-9.21875c0,7.42425-22.95898,13.4375-51.28125,13.4375s-51.28125-6.01325-51.28125-13.4375zm102.5625,0v-.78125h-.0937c.0536.25184.0937.5259.0937.78125z" fill="url(#a)"/>
   <path d="m-253.65625,212.625v.78125c0-.25521.0402-.52955.0937-.78125h-.0937zm0,.78125v9.21875h.0937c-.0535.2517-.0937.52604-.0937.78125 0,7.42425 22.95898,13.4375 51.28125,13.4375s51.28125-6.01325 51.28125-13.4375c0-.25535-.0402-.52941-.0937-.78125h.0937v-9.21875c0,7.42425-22.95898,13.4375-51.28125,13.4375s-51.28125-6.01325-51.28125-13.4375zm102.5625,0v-.78125h-.0937c.0536.25184.0937.5259.0937.78125z" fill="url(#a)"/>
  </g>
  <g transform="matrix(.03174 -.9995 -.9995 -.03174 412.62 611.08)">
   <path d="m-253.67 205.04v329.59h0.0937c-0.0535 0.2517-0.0937 0.52604-0.0937 0.78125 0 7.4242 22.959 13.438 51.281 13.438s51.281-6.0132 51.281-13.438c0-0.25535-0.0401-0.52941-0.0937-0.78125h0.0937v-329.59h-102.56z" fill="url(#c)"/>
   <path transform="matrix(1.0842 0 0 1 -1077.4 81.566)" d="m854.36 123.97c0 7.4242-21.176 13.443-47.299 13.443s-47.299-6.0185-47.299-13.443 21.176-13.443 47.299-13.443 47.299 6.0186 47.299 13.443z" fill="url(#b)"/>
   <path d="m-253.65625,518.625v.78125c0-.25521.0402-.52955.0937-.78125h-.0937zm0,.78125v9.21875h.0937c-.0535.2517-.0937.52604-.0937.78125 0,7.42425 22.95898,13.4375 51.28125,13.4375s51.28125-6.01325 51.28125-13.4375c0-.25535-.0402-.52941-.0937-.78125h.0937v-9.21875c0,7.42425-22.95898,13.4375-51.28125,13.4375s-51.28125-6.01325-51.28125-13.4375zm102.5625,0v-.78125h-.0937c.0536.25184.0937.5259.0937.78125z" fill="url(#a)"/>
   <path d="m-253.65625,212.625v.78125c0-.25521.0402-.52955.0937-.78125h-.0937zm0,.78125v9.21875h.0937c-.0535.2517-.0937.52604-.0937.78125 0,7.42425 22.95898,13.4375 51.28125,13.4375s51.28125-6.01325 51.28125-13.4375c0-.25535-.0402-.52941-.0937-.78125h.0937v-9.21875c0,7.42425-22.95898,13.4375-51.28125,13.4375s-51.28125-6.01325-51.28125-13.4375zm102.5625,0v-.78125h-.0937c.0536.25184.0937.5259.0937.78125z" fill="url(#a)"/>
  </g>
  <g transform="matrix(.08002 -.99679 -.99679 -.08002 418.54 731.52)">
   <path d="m-253.67 205.04v329.59h0.0937c-0.0535 0.2517-0.0937 0.52604-0.0937 0.78125 0 7.4242 22.959 13.438 51.281 13.438s51.281-6.0132 51.281-13.438c0-0.25535-0.0401-0.52941-0.0937-0.78125h0.0937v-329.59h-102.56z" fill="url(#c)"/>
   <path transform="matrix(1.0842 0 0 1 -1077.4 81.566)" d="m854.36 123.97c0 7.4242-21.176 13.443-47.299 13.443s-47.299-6.0185-47.299-13.443 21.176-13.443 47.299-13.443 47.299 6.0186 47.299 13.443z" fill="url(#b)"/>
   <path d="m-253.65625,518.625v.78125c0-.25521.0402-.52955.0937-.78125h-.0937zm0,.78125v9.21875h.0937c-.0535.2517-.0937.52604-.0937.78125 0,7.42425 22.95898,13.4375 51.28125,13.4375s51.28125-6.01325 51.28125-13.4375c0-.25535-.0402-.52941-.0937-.78125h.0937v-9.21875c0,7.42425-22.95898,13.4375-51.28125,13.4375s-51.28125-6.01325-51.28125-13.4375zm102.5625,0v-.78125h-.0937c.0536.25184.0937.5259.0937.78125z" fill="url(#a)"/>
   <path d="m-253.65625,212.625v.78125c0-.25521.0402-.52955.0937-.78125h-.0937zm0,.78125v9.21875h.0937c-.0535.2517-.0937.52604-.0937.78125 0,7.42425 22.95898,13.4375 51.28125,13.4375s51.28125-6.01325 51.28125-13.4375c0-.25535-.0402-.52941-.0937-.78125h.0937v-9.21875c0,7.42425-22.95898,13.4375-51.28125,13.4375s-51.28125-6.01325-51.28125-13.4375zm102.5625,0v-.78125h-.0937c.0536.25184.0937.5259.0937.78125z" fill="url(#a)"/>
  </g>
  <g transform="matrix(.02948 -.99957 -.99957 -.02948 415.05 793.94)">
   <path d="m-253.67 205.04v329.59h0.0937c-0.0535 0.2517-0.0937 0.52604-0.0937 0.78125 0 7.4242 22.959 13.438 51.281 13.438s51.281-6.0132 51.281-13.438c0-0.25535-0.0401-0.52941-0.0937-0.78125h0.0937v-329.59h-102.56z" fill="url(#c)"/>
   <path transform="matrix(1.0842 0 0 1 -1077.4 81.566)" d="m854.36 123.97c0 7.4242-21.176 13.443-47.299 13.443s-47.299-6.0185-47.299-13.443 21.176-13.443 47.299-13.443 47.299 6.0186 47.299 13.443z" fill="url(#b)"/>
   <path d="m-253.65625,518.625v.78125c0-.25521.0402-.52955.0937-.78125h-.0937zm0,.78125v9.21875h.0937c-.0535.2517-.0937.52604-.0937.78125 0,7.42425 22.95898,13.4375 51.28125,13.4375s51.28125-6.01325 51.28125-13.4375c0-.25535-.0402-.52941-.0937-.78125h.0937v-9.21875c0,7.42425-22.95898,13.4375-51.28125,13.4375s-51.28125-6.01325-51.28125-13.4375zm102.5625,0v-.78125h-.0937c.0536.25184.0937.5259.0937.78125z" fill="url(#a)"/>
   <path d="m-253.65625,212.625v.78125c0-.25521.0402-.52955.0937-.78125h-.0937zm0,.78125v9.21875h.0937c-.0535.2517-.0937.52604-.0937.78125 0,7.42425 22.95898,13.4375 51.28125,13.4375s51.28125-6.01325 51.28125-13.4375c0-.25535-.0402-.52941-.0937-.78125h.0937v-9.21875c0,7.42425-22.95898,13.4375-51.28125,13.4375s-51.28125-6.01325-51.28125-13.4375zm102.5625,0v-.78125h-.0937c.0536.25184.0937.5259.0937.78125z" fill="url(#a)"/>
  </g>
  <g transform="matrix(.10614 -.99435 -.99435 -.10614 425.77 918.26)">
   <path d="m-253.67 205.04v329.59h0.0937c-0.0535 0.2517-0.0937 0.52604-0.0937 0.78125 0 7.4242 22.959 13.438 51.281 13.438s51.281-6.0132 51.281-13.438c0-0.25535-0.0401-0.52941-0.0937-0.78125h0.0937v-329.59h-102.56z" fill="url(#c)"/>
   <path transform="matrix(1.0842 0 0 1 -1077.4 81.566)" d="m854.36 123.97c0 7.4242-21.176 13.443-47.299 13.443s-47.299-6.0185-47.299-13.443 21.176-13.443 47.299-13.443 47.299 6.0186 47.299 13.443z" fill="url(#b)"/>
   <path d="m-253.65625,518.625v.78125c0-.25521.0402-.52955.0937-.78125h-.0937zm0,.78125v9.21875h.0937c-.0535.2517-.0937.52604-.0937.78125 0,7.42425 22.95898,13.4375 51.28125,13.4375s51.28125-6.01325 51.28125-13.4375c0-.25535-.0402-.52941-.0937-.78125h.0937v-9.21875c0,7.42425-22.95898,13.4375-51.28125,13.4375s-51.28125-6.01325-51.28125-13.4375zm102.5625,0v-.78125h-.0937c.0536.25184.0937.5259.0937.78125z" fill="url(#a)"/>
   <path d="m-253.65625,212.625v.78125c0-.25521.0402-.52955.0937-.78125h-.0937zm0,.78125v9.21875h.0937c-.0535.2517-.0937.52604-.0937.78125 0,7.42425 22.95898,13.4375 51.28125,13.4375s51.28125-6.01325 51.28125-13.4375c0-.25535-.0402-.52941-.0937-.78125h.0937v-9.21875c0,7.42425-22.95898,13.4375-51.28125,13.4375s-51.28125-6.01325-51.28125-13.4375zm102.5625,0v-.78125h-.0937c.0536.25184.0937.5259.0937.78125z" fill="url(#a)"/>
  </g>
 </g>
 <g transform="matrix(2.2689 0 0 2.2689 -763.51 102.27)">
  <path d="m575.87 104.94-29.006-54.556 23.077 49.121-2.093-5.9248-0.11137-1.4389 2.0488 2.6916z" fill="#f7a039" filter="url(#d)"/>
  <path d="m545.09-10.076 2.4894 61.737 0.49788-54.269-0.68231 6.2465-0.5234 1.345-0.6795-3.3137z" fill="#f7a039" filter="url(#l)"/>
  <path d="m575.76-3.1159-28.565 54.788 27.44-46.824-3.7005 5.0784-1.1233 0.9061 1.0597-3.2123z" fill="#f7a039" filter="url(#d)"/>
  <path d="m607.57 40.727-60.885 10.521 53.87-6.5848-6.2821 0.13826-1.4017-0.3435 3.1967-1.1059z" fill="#f7a039" filter="url(#m)"/>
  <path d="m604.76 71.79-58.138-20.919 50.095 20.878-5.5309-2.9822-1.0492-0.99093 3.3259 0.61704z" fill="#f7a039" filter="url(#d)"/>
  <path d="m531.97 103.44 15.523-53.229-15.12 45.659 2.0835-4.9922 0.65532-0.91633-0.5335 3.0869z" fill="#f7a039" filter="url(#d)"/>
  <path d="m507.07 80.093 40.792-29.709-36.988 24.161 4.5205-2.3263 1.1318-0.22703-1.9596 1.9916z" fill="#f7a039" filter="url(#d)"/>
  <path d="m486.88 59.303 61.18-8.6426-54.047 4.9244 6.2834 0.05506 1.3905 0.38647-3.2292 1.007z" fill="#f7a039" filter="url(#k)"/>
  <path d="m489.58 38.084 57.91 12.458-51.401-8.3152 6.032 0.34386 1.3684-0.29538-3.0073-1.2043z" fill="#f7a039" filter="url(#n)"/>
  <path d="m495.07 19.42 53.013 31.739-45.128-30.146 4.852 3.9928 0.83845 1.1747-3.1444-1.2468z" fill="#f7a039" filter="url(#d)"/>
  <path d="m522.95 7.2889 25.011 44.117-20.534-40.182 2.0257 4.9511 0.23269 1.2625-1.6374-2.0831z" fill="#f7a039" filter="url(#d)"/>
  <path d="m536.99636,24.22993a.25003,.25003 0 0,0 -.0625.03125 .25003,.25003 0 0,0 -.0625.0625 .25003,.25003 0 0,0 -.0312.03125 .25003,.25003 0 0,0 -.0312.09375 .25003,.25003 0 0,0 .0312.125l8.125,20.5a.25003,.25003 0 0,0 0,.03125 .25003,.25003 0 0,0 .15625.125 .25003,.25003 0 0,0 .125,0 .25003,.25003 0 0,0 .15625-.125 .25003,.25003 0 0,0 .0312-.09375 .25003,.25003 0 0,0 -.0312-.125l-8.09375-20.5a.25003,.25003 0 0,0 -.0625-.0625 .25003,.25003 0 0,0 -.0312-.03125 .25003,.25003 0 0,0 -.1875-.0625 .25003,.25003 0 0,0 -.0312,0z" fill="#f7a039" filter="url(#o)"/>
  <path d="m537.90821,21.16444a.25003,.25003 0 0,0 -.0641.02781 .25003,.25003 0 0,0 -.0658.05902 .25003,.25003 0 0,0 -.0328.02951 .25003,.25003 0 0,0 -.0362.09192 .25003,.25003 0 0,0 .0244.12651l7.00059,20.9107a.25003,.25003 0 0,0 -.002.0312 .25003,.25003 0 0,0 .14924.1333 .25003,.25003 0 0,0 .12482.0068 .25003,.25003 0 0,0 .1628-.11634 .25003,.25003 0 0,0 .0362-.09192 .25003,.25003 0 0,0 -.0244-.12651l-6.96938-20.90901a.25003,.25003 0 0,0 -.059-.0658 .25003,.25003 0 0,0 -.0295-.0329 .25003,.25003 0 0,0 -.18383-.07258 .25003,.25003 0 0,0 -.0312-.0017z" fill="#f7a039" filter="url(#p)"/>
  <path d="m541.64498,24.37052a.25003,.25003 0 0,0 -.0669.02012 .25003,.25003 0 0,0 -.0722.05091 .25003,.25003 0 0,0 -.036.02547 .25003,.25003 0 0,0 -.0467.08705 .25003,.25003 0 0,0 .009.1285l4.50438,21.58648a.25003,.25003 0 0,0 -.006.03075 .25003,.25003 0 0,0 .13261.14985 .25003,.25003 0 0,0 .12317.02137 .25003,.25003 0 0,0 .1753-.09648 .25003,.25003 0 0,0 .0467-.08705 .25003,.25003 0 0,0 -.009-.1285l-4.47359-21.58114a.25003,.25003 0 0,0 -.0509-.07225 .25003,.25003 0 0,0 -.0254-.03613 .25003,.25003 0 0,0 -.17407-.0936 .25003,.25003 0 0,0 -.0308-.0053z" fill="#f7a039" filter="url(#q)"/>
  <path d="m543.62535,21.63962a.25003,.25003 0 0,0 -.0681.01541 .25003,.25003 0 0,0 -.0756.04576 .25003,.25003 0 0,0 -.0377.0229 .25003,.25003 0 0,0 -.0527.08358 .25003,.25003 0 0,0 3e-005,.12881l2.98955,21.84784a.25003,.25003 0 0,0 -.008.03026 .25003,.25003 0 0,0 .12185.15873 .25003,.25003 0 0,0 .12138.0299 .25003,.25003 0 0,0 .18159-.08403 .25003,.25003 0 0,0 .0527-.08358 .25003,.25003 0 0,0 -3e-005-.12881l-2.95921-21.84037a.25003,.25003 0 0,0 -.0457-.07562 .25003,.25003 0 0,0 -.0228-.03781 .25003,.25003 0 0,0 -.16713-.1055 .25003,.25003 0 0,0 -.0303-.0074z" fill="#f7a039" filter="url(#r)"/>
  <path d="m549.20491,23.32559a.25003,.25003 0 0,0 -.0698.0017 .25003,.25003 0 0,0 -.0832.02993 .25003,.25003 0 0,0 -.0415.015 .25003,.25003 0 0,0 -.0682.07152 .25003,.25003 0 0,0 -.0254.12628l-1.38441,22.00793a.25003,.25003 0 0,0 -.0138.02808 .25003,.25003 0 0,0 .0881.17966 .25003,.25003 0 0,0 .11309.05328 .25003,.25003 0 0,0 .19461-.04651 .25003,.25003 0 0,0 .0682-.07153 .25003,.25003 0 0,0 .0254-.12628l1.41267-21.99462a.25003,.25003 0 0,0 -.0299-.08316 .25003,.25003 0 0,0 -.0149-.04157 .25003,.25003 0 0,0 -.143-.13643 .25003,.25003 0 0,0 -.0282-.01324z" fill="#f7a039" filter="url(#s)"/>
  <path d="m551.86244,22.05974a.25003,.25003 0 0,0 -.0697-.005 .25003,.25003 0 0,0 -.0857.02187 .25003,.25003 0 0,0 -.0427.01098 .25003,.25003 0 0,0 -.0747.0647 .25003,.25003 0 0,0 -.0373.12328l-3.47413,21.77605a.25003,.25003 0 0,0 -.0164.02664 .25003,.25003 0 0,0 .0706.18724 .25003,.25003 0 0,0 .1075.06381 .25003,.25003 0 0,0 .19815-.02776 .25003,.25003 0 0,0 .0747-.06471 .25003,.25003 0 0,0 .0373-.12328l3.50099-21.7601a.25003,.25003 0 0,0 -.0219-.08563 .25003,.25003 0 0,0 -.0109-.0428 .25003,.25003 0 0,0 -.12935-.14943 .25003,.25003 0 0,0 -.0268-.01587z" fill="#f7a039" filter="url(#t)"/>
  <path d="m556.61941,25.26129a.25003,.25003 0 0,0 -.0676-.01779 .25003,.25003 0 0,0 -.0883.0057 .25003,.25003 0 0,0 -.044.0029 .25003,.25003 0 0,0 -.0854.04979 .25003,.25003 0 0,0 -.0594.11427l-7.43632,20.75974a.25003,.25003 0 0,0 -.021.02315 .25003,.25003 0 0,0 .0348.19706 .25003,.25003 0 0,0 .0939.08257 .25003,.25003 0 0,0 .19987.0093 .25003,.25003 0 0,0 .0854-.0498 .25003,.25003 0 0,0 .0594-.11427l7.45977-20.73911a.25003,.25003 0 0,0 -.006-.0882 .25003,.25003 0 0,0 -.003-.04408 .25003,.25003 0 0,0 -.0995-.17075 .25003,.25003 0 0,0 -.0234-.02055z" fill="#f7a039" filter="url(#u)"/>
  <path d="m564.69753,28.47433a.25003,.25003 0 0,0 -.0586-.0381 .25003,.25003 0 0,0 -.0856-.02229 .25003,.25003 0 0,0 -.0427-.01105 .25003,.25003 0 0,0 -.0967.02049 .25003,.25003 0 0,0 -.0922.08987l-13.57273,17.3795a.25003,.25003 0 0,0 -.0272.01539 .25003,.25003 0 0,0 -.0288.19803 .25003,.25003 0 0,0 .0633.10786 .25003,.25003 0 0,0 .18686.07152 .25003,.25003 0 0,0 .0967-.0205 .25003,.25003 0 0,0 .0923-.08987l13.5884-17.35253a.25003,.25003 0 0,0 .022-.08563 .25003,.25003 0 0,0 .011-.0428 .25003,.25003 0 0,0 -.0409-.19334 .25003,.25003 0 0,0 -.0158-.02685z" fill="#f7a039" filter="url(#d)"/>
  <path d="m568.99289,30.56119a.25003,.25003 0 0,0 -.0497-.04918 .25003,.25003 0 0,0 -.0793-.03918 .25003,.25003 0 0,0 -.0396-.01947 .25003,.25003 0 0,0 -.0988.00047 .25003,.25003 0 0,0 -.1085.06932l-16.81332,14.26808a.25003,.25003 0 0,0 -.0298.0096 .25003,.25003 0 0,0 -.0683.18808 .25003,.25003 0 0,0 .0401.11845 .25003,.25003 0 0,0 .16848.10791 .25003,.25003 0 0,0 .0988-.00048 .25003,.25003 0 0,0 .1086-.0693l16.8232-14.2385a.25003,.25003 0 0,0 .0389-.0794 .25003,.25003 0 0,0 .0194-.03968 .25003,.25003 0 0,0 -.00087-.19762 .25003,.25003 0 0,0 -.01-.0295z" fill="#f7a039" filter="url(#d)"/>
  <path d="m573.19213,33.209a.25003,.25003 0 0,0 -.0413-.05644 .25003,.25003 0 0,0 -.0721-.05127 .25003,.25003 0 0,0 -.036-.02551 .25003,.25003 0 0,0 -.0976-.01522 .25003,.25003 0 0,0 -.11813.05122l-18.86465,11.41888a.25003,.25003 0 0,0 -.0309.0047 .25003,.25003 0 0,0 -.0973.17486 .25003,.25003 0 0,0 .0208.12331 .25003,.25003 0 0,0 .14922.13328 .25003,.25003 0 0,0 .0976.01521 .25003,.25003 0 0,0 .11822-.05119l18.86971-11.3881a.25003,.25003 0 0,0 .051-.07222 .25003,.25003 0 0,0 .0254-.0361 .25003,.25003 0 0,0 .0305-.19525 .25003,.25003 0 0,0 -.005-.03071z" fill="#f7a039" filter="url(#v)"/>
  <path d="m573.01854,40.37879a.25003,.25003 0 0,0 -.0299-.0632 .25003,.25003 0 0,0 -.0612-.06391 .25003,.25003 0 0,0 -.0306-.03182 .25003,.25003 0 0,0 -.093-.03329 .25003,.25003 0 0,0 -.12565.0281l-20.67477,7.66942a.25003,.25003 0 0,0 -.0312-.0012 .25003,.25003 0 0,0 -.12843.15345 .25003,.25003 0 0,0 -.003.12502 .25003,.25003 0 0,0 .1215.15895 .25003,.25003 0 0,0 .093.03328 .25003,.25003 0 0,0 .12573-.02806l20.67395-7.63823a.25003,.25003 0 0,0 .0637-.06135 .25003,.25003 0 0,0 .0317-.03068 .25003,.25003 0 0,0 .0667-.18604 .25003,.25003 0 0,0 .00086-.0311z" fill="#f7a039" filter="url(#w)"/>
  <path d="m575.92997,52.54223a.25003,.25003 0 0,0 .001-.06991 .25003,.25003 0 0,0 -.0266-.0844 .25003,.25003 0 0,0 -.0134-.04208 .25003,.25003 0 0,0 -.0687-.07101 .25003,.25003 0 0,0 -.12511-.03041l-21.93369-2.27339a.25003,.25003 0 0,0 -.0274-.01489 .25003,.25003 0 0,0 -.18309.08076 .25003,.25003 0 0,0 -.058.11078 .25003,.25003 0 0,0 .0386.19631 .25003,.25003 0 0,0 .0687.071 .25003,.25003 0 0,0 .12516.03049l21.91941,2.30098a.25003,.25003 0 0,0 .0843-.02682 .25003,.25003 0 0,0 .042-.01348 .25003,.25003 0 0,0 .14215-.1373 .25003,.25003 0 0,0 .0145-.02751z" fill="#f7a039" filter="url(#x)"/>
  <path d="m577.7233,57.87964a.25003,.25003 0 0,0 .0118-.06892 .25003,.25003 0 0,0 -.0133-.08749 .25003,.25003 0 0,0 -.007-.04364 .25003,.25003 0 0,0 -.0569-.08075 .25003,.25003 0 0,0 -.11893-.04932l-21.32148-5.62579a.25003,.25003 0 0,0 -.0248-.01893 .25003,.25003 0 0,0 -.19334.05159 .25003,.25003 0 0,0 -.0744.10052 .25003,.25003 0 0,0 .008.19991 .25003,.25003 0 0,0 .0569.08074 .25003,.25003 0 0,0 .11897.04941l21.30312,5.65086a.25003,.25003 0 0,0 .0874-.01351 .25003,.25003 0 0,0 .0436-.0068 .25003,.25003 0 0,0 .16161-.11376 .25003,.25003 0 0,0 .0186-.02495z" fill="#f7a039" filter="url(#y)"/>
  <path d="m573.7246,67.01151a.25003,.25003 0 0,0 .0332-.06153 .25003,.25003 0 0,0 .0154-.08715 .25003,.25003 0 0,0 .007-.04359 .25003,.25003 0 0,0 -.0281-.0947 .25003,.25003 0 0,0 -.0969-.08475l-18.4038-12.14681a.25003,.25003 0 0,0 -.0174-.02586 .25003,.25003 0 0,0 -.19968-.01293 .25003,.25003 0 0,0 -.10264.07146 .25003,.25003 0 0,0 -.0563.19198 .25003,.25003 0 0,0 .0281.09469 .25003,.25003 0 0,0 .0969.08485l18.37862,12.1647a.25003,.25003 0 0,0 .0871.01514 .25003,.25003 0 0,0 .0435.0075 .25003,.25003 0 0,0 .1895-.05613 .25003,.25003 0 0,0 .0256-.01769z" fill="#f7a039" filter="url(#z)"/>
  <path d="m565.7614,70.97937a.25003,.25003 0 0,0 .0492-.04972 .25003,.25003 0 0,0 .0393-.07931 .25003,.25003 0 0,0 .019-.03987 .25003,.25003 0 0,0 -.00037-.09878 .25003,.25003 0 0,0 -.0692-.10856l-14.25017-16.82798a.25003,.25003 0 0,0 -.009-.02971 .25003,.25003 0 0,0 -.18801-.06851 .25003,.25003 0 0,0 -.11858.03975 .25003,.25003 0 0,0 -.10797.16843 .25003,.25003 0 0,0 .00037.09877 .25003,.25003 0 0,0 .0692.10866l14.22087,16.83806a.25003,.25003 0 0,0 .0793.039 .25003,.25003 0 0,0 .0396.01942 .25003,.25003 0 0,0 .19764-.00063 .25003,.25003 0 0,0 .0295-.0098z" fill="#f7a039" filter="url(#d)"/>
  <path d="m554.18259,75.0271a.25003,.25003 0 0,0 .0659-.02346 .25003,.25003 0 0,0 .0698-.05442 .25003,.25003 0 0,0 .0344-.02769 .25003,.25003 0 0,0 .0425-.08917 .25003,.25003 0 0,0 -.0153-.12783l-5.54245-21.34314a.25003,.25003 0 0,0 .005-.03067 .25003,.25003 0 0,0 -.1397-.14327 .25003,.25003 0 0,0 -.12409-.01561 .25003,.25003 0 0,0 -.17033.10494 .25003,.25003 0 0,0 -.0425.08916 .25003,.25003 0 0,0 .0152.12792l5.51167,21.33951a.25003,.25003 0 0,0 .0546.06953 .25003,.25003 0 0,0 .0273.03467 .25003,.25003 0 0,0 .17836.08514 .25003,.25003 0 0,0 .0308.004z" fill="#f7a039" filter="url(#aa)"/>
  <path d="m547.79592,81.03703a.25003,.25003 0 0,0 .0697-.0053 .25003,.25003 0 0,0 .0816-.03418 .25003,.25003 0 0,0 .0405-.01769 .25003,.25003 0 0,0 .0644-.07488 .25003,.25003 0 0,0 .0188-.12736l.256-22.04955a.25003,.25003 0 0,0 .0129-.02828 .25003,.25003 0 0,0 -.0972-.17492 .25003,.25003 0 0,0 -.11564-.04764 .25003,.25003 0 0,0 -.19191.05654 .25003,.25003 0 0,0 -.0644.07487 .25003,.25003 0 0,0 -.0189.12742l-.28474,22.03797a.25003,.25003 0 0,0 .0344.08143 .25003,.25003 0 0,0 .0172.04062 .25003,.25003 0 0,0 .14975.12898 .25003,.25003 0 0,0 .0287.01195z" fill="#f7a039" filter="url(#ab)"/>
  <path d="m536.26808,73.10411a.25003,.25003 0 0,0 .0651.0255 .25003,.25003 0 0,0 .0883.0047 .25003,.25003 0 0,0 .0442.0017 .25003,.25003 0 0,0 .0905-.03947 .25003,.25003 0 0,0 .0723-.10655l9.80839-19.74952a.25003,.25003 0 0,0 .0239-.01987 .25003,.25003 0 0,0 -.0116-.19978 .25003,.25003 0 0,0 -.0835-.09314 .25003,.25003 0 0,0 -.19742-.03243 .25003,.25003 0 0,0 -.0905.03946 .25003,.25003 0 0,0 -.0724.10656l-9.82925,19.72661a.25003,.25003 0 0,0 -.004.08829 .25003,.25003 0 0,0 -.002.04406 .25003,.25003 0 0,0 .0789.18123 .25003,.25003 0 0,0 .0207.02323z" fill="#f7a039" filter="url(#ac)"/>
  <path d="m531.11067,72.18061a.25003,.25003 0 0,0 .0586.03807 .25003,.25003 0 0,0 .0856.02236 .25003,.25003 0 0,0 .043.01055 .25003,.25003 0 0,0 .0966-.02047 .25003,.25003 0 0,0 .0922-.08984l13.57897-17.3741a.25003,.25003 0 0,0 .0274-.01466 .25003,.25003 0 0,0 .0288-.19803 .25003,.25003 0 0,0 -.0631-.10803 .25003,.25003 0 0,0 -.18686-.07146 .25003,.25003 0 0,0 -.0966.02046 .25003,.25003 0 0,0 -.0924.08983l-13.59481,17.34746a.25003,.25003 0 0,0 -.0217.08568 .25003,.25003 0 0,0 -.0108.04276 .25003,.25003 0 0,0 .0408.19339 .25003,.25003 0 0,0 .0156.02692z" fill="#f7a039" filter="url(#d)"/>
  <path d="m525.50787,71.36297a.25003,.25003 0 0,0 .0518.04691 .25003,.25003 0 0,0 .081.0357 .25003,.25003 0 0,0 .0408.01726 .25003,.25003 0 0,0 .0986-.0048 .25003,.25003 0 0,0 .10533-.07401l16.17211-14.99036a.25003,.25003 0 0,0 .0294-.01011 .25003,.25003 0 0,0 .06-.19092 .25003,.25003 0 0,0 -.0451-.11669 .25003,.25003 0 0,0 -.1731-.1003 .25003,.25003 0 0,0 -.0986.0048 .25003,.25003 0 0,0 -.10553.07397l-16.1835,14.96154a.25003,.25003 0 0,0 -.0351.08113 .25003,.25003 0 0,0 -.0175.04049 .25003,.25003 0 0,0 .009.19742 .25003,.25003 0 0,0 .0111.02906z" fill="#f7a039" filter="url(#d)"/>
  <path d="m523.3213,62.19026a.25003,.25003 0 0,0 .0352.06035 .25003,.25003 0 0,0 .0665.05846 .25003,.25003 0 0,0 .0337.02876 .25003,.25003 0 0,0 .0955.02516 .25003,.25003 0 0,0 .12274-.0388l19.93963-9.4159a.25003,.25003 0 0,0 .0311-.00077 .25003,.25003 0 0,0 .11478-.16394 .25003,.25003 0 0,0 -.008-.12486 .25003,.25003 0 0,0 -.1348-.14783 .25003,.25003 0 0,0 -.0955-.02516 .25003,.25003 0 0,0 -.12293.03871l-19.9418,9.38498a.25003,.25003 0 0,0 -.0579.06677 .25003,.25003 0 0,0 -.0289.03333 .25003,.25003 0 0,0 -.051.19094 .25003,.25003 0 0,0 .002.03105z" fill="#f7a039" filter="url(#ad)"/>
  <path d="m518.69052,59.91929a.25003,.25003 0 0,0 .0271.0644 .25003,.25003 0 0,0 .0584.06659 .25003,.25003 0 0,0 .0297.03289 .25003,.25003 0 0,0 .0914.03733 .25003,.25003 0 0,0 .12674-.02256l20.99212-6.7512a.25003,.25003 0 0,0 .0309.0033 .25003,.25003 0 0,0 .13507-.14768 .25003,.25003 0 0,0 .008-.12484 .25003,.25003 0 0,0 -.11449-.16406 .25003,.25003 0 0,0 -.0914-.03733 .25003,.25003 0 0,0 -.12692.02245l-20.99026,6.72026a.25003,.25003 0 0,0 -.0661.0587 .25003,.25003 0 0,0 -.033.0293 .25003,.25003 0 0,0 -.0753.18272 .25003,.25003 0 0,0 -.002.03105z" fill="#f7a039" filter="url(#ae)"/>
  <path d="m517.15578,51.33912a.25003,.25003 0 0,0 .008.06942 .25003,.25003 0 0,0 .0374.08029 .25003,.25003 0 0,0 .0193.0399 .25003,.25003 0 0,0 .0773.06146 .25003,.25003 0 0,0 .12798.01388l22.04302-.59407a.25003,.25003 0 0,0 .0287.01183 .25003,.25003 0 0,0 .17106-.10388 .25003,.25003 0 0,0 .0427-.11759 .25003,.25003 0 0,0 -.0639-.18958 .25003,.25003 0 0,0 -.0773-.06146 .25003,.25003 0 0,0 -.12812-.01404l-22.03256.5649a.25003,.25003 0 0,0 -.0799.03781 .25003,.25003 0 0,0 -.0399.01887 .25003,.25003 0 0,0 -.12352.15428 .25003,.25003 0 0,0 -.0106.02924z" fill="#f7a039" filter="url(#af)"/>
  <path d="m520.86887,48.7402a.25003,.25003 0 0,0 .00063.06988 .25003,.25003 0 0,0 .0287.08379 .25003,.25003 0 0,0 .015.04171 .25003,.25003 0 0,0 .0704.06927 .25003,.25003 0 0,0 .1258.02731l21.98262,1.73559a.25003,.25003 0 0,0 .0273.01479 .25003,.25003 0 0,0 .18107-.08524 .25003,.25003 0 0,0 .0549-.11243 .25003,.25003 0 0,0 -.0435-.19527 .25003,.25003 0 0,0 -.0704-.06928 .25003,.25003 0 0,0 -.12592-.02748l-21.96922-1.76349a.25003,.25003 0 0,0 -.0834.02917 .25003,.25003 0 0,0 -.0417.01455 .25003,.25003 0 0,0 -.13911.14038 .25003,.25003 0 0,0 -.0136.02796z" fill="#f7a039" filter="url(#ag)"/>
  <path d="m518.28235,41.94859a.25003,.25003 0 0,0 -.0135.06857 .25003,.25003 0 0,0 .0112.08785 .25003,.25003 0 0,0 .006.04388 .25003,.25003 0 0,0 .055.08203 .25003,.25003 0 0,0 .11772.05209l21.18226,6.1286a.25003,.25003 0 0,0 .0238.01999 .25003,.25003 0 0,0 .19453-.04701 .25003,.25003 0 0,0 .0764-.09906 .25003,.25003 0 0,0 -.003-.20003 .25003,.25003 0 0,0 -.055-.08204 .25003,.25003 0 0,0 -.11781-.05228l-21.16343-6.15324a.25003,.25003 0 0,0 -.0876.01177 .25003,.25003 0 0,0 -.0438.0059 .25003,.25003 0 0,0 -.16454.10948 .25003,.25003 0 0,0 -.019.02465z" fill="#f7a039" filter="url(#ah)"/>
  <path d="m524.26019,40.49814a.25003,.25003 0 0,0 -.0205.06681 .25003,.25003 0 0,0 .002.08854 .25003,.25003 0 0,0 .001.04427 .25003,.25003 0 0,0 .0462.08727 .25003,.25003 0 0,0 .1117.06397l20.43562,8.28453a.25003,.25003 0 0,0 .0216.02234 .25003,.25003 0 0,0 .19834-.02666 .25003,.25003 0 0,0 .0862-.09063 .25003,.25003 0 0,0 .0177-.19927 .25003,.25003 0 0,0 -.0462-.08728 .25003,.25003 0 0,0 -.11178-.06417l-20.41434-8.30709a.25003,.25003 0 0,0 -.0883.0027 .25003,.25003 0 0,0 -.0442.0013 .25003,.25003 0 0,0 -.17497.09189 .25003,.25003 0 0,0 -.0214.02255z" fill="#f7a039" filter="url(#ai)"/>
  <path d="m524.05006,29.6024a.25003,.25003 0 0,0 -.0405.05698 .25003,.25003 0 0,0 -.0259.08468 .25003,.25003 0 0,0 -.013.04234 .25003,.25003 0 0,0 .0164.09737 .25003,.25003 0 0,0 .0859.09583l16.79705,14.28661a.25003,.25003 0 0,0 .0135.028 .25003,.25003 0 0,0 .19667.03702 .25003,.25003 0 0,0 .11031-.05895 .25003,.25003 0 0,0 .0794-.18361 .25003,.25003 0 0,0 -.0164-.09738 .25003,.25003 0 0,0 -.0859-.09604l-16.7697-14.30134a.25003,.25003 0 0,0 -.0847-.02519 .25003,.25003 0 0,0 -.0424-.01265 .25003,.25003 0 0,0 -.19498.03225 .25003,.25003 0 0,0 -.0274.01468z" fill="#f7a039" filter="url(#d)"/>
  <path d="m529.6435,28.67481a.25003,.25003 0 0,0 -.0495.0494 .25003,.25003 0 0,0 -.0397.07916 .25003,.25003 0 0,0 -.0199.03957 .25003,.25003 0 0,0 -.00011.09874 .25003,.25003 0 0,0 .0687.10885l14.17096,16.89473a.25003,.25003 0 0,0 .009.02986 .25003,.25003 0 0,0 .1877.06939 .25003,.25003 0 0,0 .11862-.03967 .25003,.25003 0 0,0 .10899-.16774 .25003,.25003 0 0,0 .00012-.09875 .25003,.25003 0 0,0 -.0686-.10905l-14.14193-16.90468a.25003,.25003 0 0,0 -.0793-.039 .25003,.25003 0 0,0 -.0397-.01956 .25003,.25003 0 0,0 -.19763-.00082 .25003,.25003 0 0,0 -.0295.0099z" fill="#f7a039" filter="url(#d)"/>
  <path transform="matrix(.72033 0 0 .72033 40.268 20.595)" d="m723.58 41.573c0 10.908-8.8427 19.751-19.751 19.751s-19.751-8.8427-19.751-19.751 8.8427-19.751 19.751-19.751 19.751 8.8427 19.751 19.751z" fill="url(#f)" filter="url(#g)"/>
  <path transform="matrix(.85089 .18378 -.13261 .614 55.879 -77.057)" d="m616.74-28.22-28.565 54.788 27.44-46.824-3.7005 5.0784-1.1233 0.9061 1.0597-3.2123z" fill="url(#h)" filter="url(#d)"/>
  <path transform="matrix(-.71024 .17253 .11069 .57641 958.02 -70.862)" d="m616.74-28.22-28.565 54.788 27.44-46.824-3.7005 5.0784-1.1233 0.9061 1.0597-3.2123z" fill="url(#h)" filter="url(#d)"/>
  <path transform="matrix(.20742 .70085 .57023 -.13905 407.72 -354.35)" d="m616.74-28.22-28.565 54.788 27.44-46.824-3.7005 5.0784-1.1233 0.9061 1.0597-3.2123z" fill="url(#h)" filter="url(#d)"/>
  <path transform="matrix(.70122 -.20614 -.13801 -.57048 143.24 191.9)" d="m616.74-28.22-28.565 54.788 27.44-46.824-3.7005 5.0784-1.1233 0.9061 1.0597-3.2123z" fill="url(#h)" filter="url(#d)"/>
  <path transform="matrix(.17119 0 0 .17119 413.33 87.15)" d="m723.58 41.573c0 10.908-8.8427 19.751-19.751 19.751s-19.751-8.8427-19.751-19.751 8.8427-19.751 19.751-19.751 19.751 8.8427 19.751 19.751z" fill="url(#f)" filter="url(#g)"/>
  <path transform="matrix(.13364 0 0 .13364 500.06 64.695)" d="m723.58 41.573c0 10.908-8.8427 19.751-19.751 19.751s-19.751-8.8427-19.751-19.751 8.8427-19.751 19.751-19.751 19.751 8.8427 19.751 19.751z" fill="url(#f)" filter="url(#g)"/>
  <path transform="matrix(.50041 .04721 -.04721 .50041 301.35 53.134)" d="m465.97 44.235-1.3301-6.8174-7.0234 0.03023 6.8174-1.3301-0.0302-7.0234 1.3301 6.8174 7.0234-0.03023-6.8174 1.3301z" fill="#fff"/>
  <path id="e" transform="matrix(.50041 .04721 -.04721 .50041 361.13 28.595)" d="m465.97 44.235-1.3301-6.8174-7.0234 0.03023 6.8174-1.3301-0.0302-7.0234 1.3301 6.8174 7.0234-0.03023-6.8174 1.3301z" fill="#fff"/>
  <path transform="matrix(.13364 0 0 .13364 432.71 7.2648)" d="m723.58 41.573c0 10.908-8.8427 19.751-19.751 19.751s-19.751-8.8427-19.751-19.751 8.8427-19.751 19.751-19.751 19.751 8.8427 19.751 19.751z" fill="url(#f)" filter="url(#g)"/>
  <path transform="matrix(.50041 .04721 -.04721 .50041 295.61 -25.963)" d="m465.97 44.235-1.3301-6.8174-7.0234 0.03023 6.8174-1.3301-0.0302-7.0234 1.3301 6.8174 7.0234-0.03023-6.8174 1.3301z" fill="#fff"/>
  <path transform="matrix(.09901 0 0 .09901 472.25 20.011)" d="m723.58 41.573c0 10.908-8.8427 19.751-19.751 19.751s-19.751-8.8427-19.751-19.751 8.8427-19.751 19.751-19.751 19.751 8.8427 19.751 19.751z" fill="url(#f)" filter="url(#g)"/>
  <path transform="matrix(.37073 .03497 -.03497 .37073 370.68 -4.6064)" d="m465.97 44.235-1.3301-6.8174-7.0234 0.03023 6.8174-1.3301-0.0302-7.0234 1.3301 6.8174 7.0234-0.03023-6.8174 1.3301z" fill="#fff"/>
  <path transform="matrix(.09901 0 0 .09901 503.83 37.24)" d="m723.58 41.573c0 10.908-8.8427 19.751-19.751 19.751s-19.751-8.8427-19.751-19.751 8.8427-19.751 19.751-19.751 19.751 8.8427 19.751 19.751z" fill="url(#f)" filter="url(#g)"/>
  <path transform="matrix(.37073 .03497 -.03497 .37073 402.26 12.623)" d="m465.97 44.235-1.3301-6.8174-7.0234 0.03023 6.8174-1.3301-0.0302-7.0234 1.3301 6.8174 7.0234-0.03023-6.8174 1.3301z" fill="#fff"/>
  <path transform="matrix(.09901 0 0 .09901 455.8 73.264)" d="m723.58 41.573c0 10.908-8.8427 19.751-19.751 19.751s-19.751-8.8427-19.751-19.751 8.8427-19.751 19.751-19.751 19.751 8.8427 19.751 19.751z" fill="url(#f)" filter="url(#g)"/>
  <path transform="matrix(.37073 .03497 -.03497 .37073 354.23 48.647)" d="m465.97 44.235-1.3301-6.8174-7.0234 0.03023 6.8174-1.3301-0.0302-7.0234 1.3301 6.8174 7.0234-0.03023-6.8174 1.3301z" fill="#fff"/>
  <use transform="matrix(-.45409 -.99896 .99896 -.45409 748.36 660.54)" width="450" height="470" xlink:href="#e"/>
  <use transform="matrix(.25341 .90511 -.90511 .25341 465.05 -517.23)" width="450" height="470" xlink:href="#e"/>
  <use transform="matrix(.0579 -.90543 .90543 .0579 443.65 557.78)" width="450" height="470" xlink:href="#e"/>
  <g transform="translate(-39.132 52.423)">
   <use transform="matrix(-.61359 .52382 -.52382 -.61359 995.08 -268.06)" width="450" height="470" xlink:href="#e"/>
   <use transform="matrix(.06558 -1.0749 1.0749 .06558 487.35 623.17)" width="450" height="470" xlink:href="#e"/>
  </g>
  <use transform="matrix(.97371 .22454 -.22454 .97371 -23.505 -134.37)" width="450" height="470" xlink:href="#e"/>
  <use transform="matrix(.35063 .70725 -.70725 .35063 400.82 -378.21)" width="450" height="470" xlink:href="#e"/>
  <use transform="matrix(-.00959 .89007 -.89007 -.00959 608.08 -491.77)" width="450" height="470" xlink:href="#e"/>
  <use transform="matrix(-.69276 -.7809 .7809 -.69276 883.56 541.72)" width="450" height="470" xlink:href="#e"/>
 </g>
</svg>
